{"glyphs":{"0":{"ha":625,"x_min":36,"x_max":582,"o":"m 339 601 q 517 519 453 601 q 582 317 582 438 q 490 91 582 190 q 281 -8 397 -8 q 103 74 169 -8 q 36 282 36 157 q 128 504 36 407 q 339 601 219 601 m 158 364 q 190 157 158 256 q 326 58 222 58 q 421 108 385 58 q 457 236 457 158 q 419 442 457 349 q 292 536 382 536 q 194 488 231 536 q 158 364 158 439 z "},"1":{"ha":389,"x_min":56,"x_max":336,"o":"m 283 599 l 283 89 q 293 37 283 51 q 336 0 303 22 l 99 0 q 138 32 118 15 q 156 89 156 53 l 156 454 q 119 493 156 493 q 56 468 93 493 q 148 561 104 524 q 283 599 192 599 z "},"2":{"ha":589,"x_min":31,"x_max":578,"o":"m 311 604 q 478 560 417 604 q 540 417 540 515 q 352 241 540 344 q 142 111 164 138 q 208 110 174 111 q 278 110 242 110 q 460 116 383 110 q 578 142 538 122 q 518 49 547 94 q 399 -3 472 -3 l 31 0 q 125 171 31 93 q 305 296 213 231 q 397 429 397 361 q 372 526 397 490 q 276 561 346 561 q 190 528 233 561 q 147 450 147 496 q 153 390 147 414 q 183 331 158 367 q 95 395 117 365 q 74 474 74 425 q 144 566 74 528 q 311 604 214 604 z "},"3":{"ha":589,"x_min":19,"x_max":550,"o":"m 300 594 l 546 594 q 412 396 513 482 q 275 265 311 310 q 344 274 313 274 q 497 197 444 274 q 550 3 550 119 q 456 -204 550 -100 q 231 -308 361 -308 q 63 -257 107 -308 q 19 -104 19 -206 q 110 -225 64 -164 q 242 -274 168 -274 q 377 -201 335 -274 q 419 -39 419 -129 q 383 147 419 76 q 257 217 346 217 q 153 196 214 217 q 292 339 190 246 q 428 489 393 432 l 218 489 q 136 481 160 489 q 65 450 113 472 q 152 559 89 524 q 300 594 215 594 z "},"4":{"ha":667,"x_min":22,"x_max":646,"o":"m 503 594 l 503 25 q 565 26 522 25 q 646 43 608 28 q 615 -21 642 4 q 503 -46 588 -46 l 503 -214 q 523 -269 503 -249 q 564 -303 543 -289 l 317 -303 q 356 -268 336 -289 q 376 -214 376 -247 l 376 -46 l 22 -46 q 168 222 78 31 q 308 496 258 413 q 424 586 358 579 l 503 594 m 375 510 q 227 248 315 438 q 117 25 139 58 l 375 25 l 375 510 z "},"5":{"ha":644,"x_min":29,"x_max":624,"o":"m 135 233 q 212 267 176 253 q 308 281 247 281 q 532 202 440 281 q 624 -11 624 124 q 552 -212 624 -122 q 308 -301 481 -301 q 94 -228 158 -301 q 29 -4 29 -154 q 182 -197 100 -136 q 340 -258 264 -258 q 458 -201 421 -258 q 496 -47 496 -143 q 428 165 496 106 q 263 225 360 225 q 167 207 208 225 q 64 147 125 189 l 217 594 q 268 594 242 594 q 321 593 294 593 q 479 600 418 593 q 586 631 540 607 q 469 494 554 518 q 222 469 385 469 q 178 374 211 469 q 135 233 146 278 z "},"6":{"ha":667,"x_min":35,"x_max":635,"o":"m 464 903 q 263 731 331 836 q 169 519 194 625 q 157 431 163 475 q 249 480 200 463 q 367 497 297 497 q 565 427 494 497 q 635 244 635 357 q 553 55 635 121 q 343 -11 471 -11 q 112 85 189 -11 q 35 350 35 182 q 152 733 35 563 q 464 903 269 903 m 169 292 q 238 116 169 196 q 390 36 307 36 q 474 69 440 36 q 507 175 507 103 q 463 363 507 283 q 331 443 418 443 q 217 400 265 443 q 169 292 169 357 z "},"7":{"ha":667,"x_min":-28,"x_max":696,"o":"m 235 -31 q 267 -136 235 -89 q 371 -226 299 -183 q 313 -294 336 -269 q 274 -319 289 -319 q 169 -235 228 -319 q 111 -64 111 -151 q 251 203 111 64 q 518 468 390 342 l 142 468 q 58 458 86 468 q -28 404 29 449 q 59 544 0 493 q 203 594 118 594 l 549 594 q 628 605 589 594 q 696 631 667 615 q 524 380 633 488 q 321 182 414 272 q 235 -31 235 83 z "},"8":{"ha":556,"x_min":19,"x_max":531,"o":"m 283 867 q 432 812 386 867 q 478 686 478 757 q 443 587 478 619 q 319 493 408 554 q 460 388 390 451 q 531 210 531 324 q 448 47 531 104 q 239 -11 365 -11 q 19 186 19 -11 q 58 333 19 283 q 181 442 97 383 q 101 545 126 494 q 75 675 75 596 q 139 831 75 796 q 283 867 203 867 m 139 729 q 186 603 139 663 q 294 513 233 544 q 357 554 325 531 q 389 653 389 578 q 345 776 389 726 q 243 825 301 825 q 169 804 199 825 q 139 729 139 783 m 108 257 q 169 92 108 147 q 297 36 229 36 q 367 61 343 36 q 392 151 392 86 q 344 324 392 274 q 203 425 297 375 q 130 351 151 383 q 108 257 108 318 z "},"9":{"ha":622,"x_min":40,"x_max":586,"o":"m 331 599 q 524 506 463 599 q 586 264 586 413 q 503 -50 586 83 q 313 -260 419 -183 q 131 -364 206 -337 q 394 -78 331 -194 q 458 181 458 39 q 410 436 458 354 q 247 518 361 518 q 152 481 188 518 q 117 393 117 444 q 190 197 117 303 q 400 54 263 92 q 119 115 197 54 q 40 321 40 175 q 126 524 40 449 q 331 599 211 599 z "}," ":{"ha":347,"x_min":0,"x_max":0,"o":""},"!":{"ha":507,"x_min":81,"x_max":458,"o":"m 458 925 q 374 672 414 857 q 307 392 333 486 q 192 151 281 297 q 152 290 165 222 q 139 418 139 357 q 197 667 139 560 q 328 836 256 774 q 458 925 401 899 m 214 11 q 260 -24 222 11 q 336 -81 297 -58 q 274 -151 328 -93 q 203 -210 219 -210 q 161 -177 193 -210 q 81 -117 129 -144 q 147 -43 94 -97 q 214 11 200 11 z "},"\"":{"ha":449,"x_min":21,"x_max":403,"o":"m 403 888 q 396 807 396 854 q 396 770 396 789 q 397 733 396 751 q 392 663 397 697 q 375 590 388 629 q 308 717 363 640 q 254 888 254 794 q 292 901 271 897 q 328 906 313 906 q 374 900 357 906 q 403 888 390 894 m 169 888 q 163 807 163 854 q 163 770 163 789 q 164 733 163 751 q 159 663 164 697 q 142 590 154 629 q 75 717 129 640 q 21 888 21 794 q 58 901 38 897 q 94 906 79 906 q 140 900 124 906 q 169 888 157 894 z "},"#":{"ha":618,"x_min":69,"x_max":522,"o":"m 197 411 l 156 329 l 111 329 l 153 411 l 69 411 l 103 456 l 175 456 l 235 575 l 144 575 l 178 619 l 257 619 l 303 711 l 347 711 l 301 619 l 399 619 l 444 711 l 489 711 l 443 619 l 522 619 l 489 575 l 421 575 l 361 456 l 447 456 l 414 411 l 339 411 l 297 329 l 253 329 l 294 411 l 197 411 m 376 575 l 279 575 l 219 456 l 317 456 l 376 575 z "},"$":{"ha":544,"x_min":19,"x_max":508,"o":"m 289 -1 l 289 -115 l 233 -114 l 233 -3 q 123 19 182 -3 q 19 113 64 40 l 19 251 q 135 100 76 154 q 272 46 194 46 q 352 89 321 46 q 383 181 383 132 q 293 321 383 260 q 124 419 208 369 q 32 571 32 485 q 98 733 32 686 q 233 781 164 781 l 233 888 l 289 890 l 289 781 q 392 758 321 781 q 464 626 464 735 q 392 697 435 675 q 281 719 350 719 q 195 697 233 719 q 157 614 157 675 q 281 485 157 554 q 457 376 406 417 q 508 224 508 335 q 447 60 508 122 q 289 -1 385 -1 z "},"%":{"ha":681,"x_min":42,"x_max":643,"o":"m 185 778 q 283 730 253 778 q 313 611 313 682 q 272 491 313 526 q 174 456 232 456 q 74 507 104 456 q 44 625 44 558 q 85 736 44 694 q 185 778 125 778 m 522 775 q 592 765 565 775 q 619 733 619 754 q 610 708 619 722 l 160 64 q 151 39 151 49 q 169 13 151 22 q 236 -15 188 4 l 143 -15 q 72 -7 101 -15 q 42 21 42 1 q 50 40 42 29 l 514 707 q 522 726 522 718 q 499 753 522 743 q 444 775 476 763 l 522 775 m 515 304 q 610 255 576 304 q 643 136 643 206 q 600 19 643 56 q 503 -18 557 -18 q 405 33 435 -18 q 375 151 375 85 q 419 268 375 232 q 515 304 463 304 m 106 625 q 123 535 106 579 q 172 492 140 492 q 231 520 208 492 q 253 610 253 549 q 237 701 253 661 q 186 742 221 742 q 128 713 150 742 q 106 625 106 685 m 438 153 q 453 60 438 101 q 503 18 468 18 q 560 47 538 18 q 582 135 582 75 q 566 230 582 190 q 517 269 550 269 q 460 241 482 269 q 438 153 438 213 z "},"&":{"ha":903,"x_min":36,"x_max":1064,"o":"m 353 919 q 458 871 414 919 q 503 757 503 822 q 466 644 503 696 q 332 500 429 593 q 529 285 390 428 q 726 93 668 142 q 770 176 754 135 q 786 264 786 218 q 733 410 786 339 q 550 547 679 482 q 772 471 704 547 q 839 278 839 394 q 822 158 839 218 q 778 57 804 97 q 922 -69 871 -29 q 1064 -140 972 -108 l 994 -140 q 814 -106 876 -140 q 717 -44 758 -69 q 592 -141 674 -96 q 378 -186 510 -186 q 125 -105 214 -186 q 36 93 36 -24 q 92 292 36 200 q 225 463 147 385 q 169 547 197 499 q 142 664 142 596 q 201 839 142 758 q 353 919 261 919 m 236 733 q 250 642 236 693 q 308 538 264 590 q 376 618 343 564 q 410 710 410 672 q 391 796 410 765 q 317 826 372 826 q 259 807 282 826 q 236 733 236 788 m 163 229 q 242 12 163 82 q 464 -58 321 -58 q 573 -42 524 -58 q 658 13 622 -26 q 456 187 575 68 q 253 425 338 306 q 193 335 224 390 q 163 229 163 279 z "},"'":{"ha":174,"x_min":15,"x_max":164,"o":"m 164 888 q 157 807 157 854 q 157 770 157 789 q 158 733 157 751 q 153 663 158 697 q 136 590 149 629 q 69 717 124 640 q 15 888 15 794 q 53 901 32 897 q 89 906 74 906 q 135 900 118 906 q 164 888 151 894 z "},"(":{"ha":319,"x_min":38,"x_max":267,"o":"m 261 -261 q 103 -49 168 -192 q 38 247 38 93 q 92 508 38 386 q 267 722 146 629 q 191 522 218 661 q 164 219 164 382 q 188 -65 164 65 q 261 -261 213 -194 z "},")":{"ha":319,"x_min":54,"x_max":283,"o":"m 60 721 q 218 509 153 651 q 283 213 283 367 q 229 -48 283 74 q 54 -262 175 -169 q 130 -62 103 -201 q 157 240 157 78 q 133 524 157 394 q 60 721 108 654 z "},"*":{"ha":796,"x_min":51,"x_max":736,"o":"m 393 919 q 421 861 407 890 q 481 833 438 854 q 426 811 453 822 q 411 753 411 800 q 417 700 411 707 q 469 664 439 686 q 508 703 501 696 q 515 719 515 711 q 513 760 513 738 q 572 769 564 760 q 581 831 581 779 l 642 831 l 642 769 q 582 760 593 769 q 571 699 571 750 q 536 700 543 700 q 510 683 525 700 q 481 653 494 665 q 501 612 492 628 q 533 596 510 596 l 567 596 q 625 613 613 596 q 647 664 636 642 q 676 604 661 633 q 736 578 694 599 q 678 551 707 564 q 647 492 669 535 q 626 542 636 517 q 567 560 614 560 q 508 553 515 560 q 481 503 497 531 q 511 469 497 483 q 539 456 525 456 q 571 457 556 457 q 581 401 571 410 q 642 392 592 392 l 642 329 l 581 329 q 570 385 581 374 q 513 397 560 397 l 513 424 q 507 451 513 443 q 469 492 489 469 q 421 463 444 476 q 411 431 411 454 l 411 404 q 426 349 411 360 q 481 324 456 336 q 419 296 450 310 q 393 236 414 278 q 348 305 363 299 q 307 324 333 311 q 358 346 332 335 q 375 403 375 358 l 375 429 q 368 461 375 454 q 318 492 344 475 q 285 458 299 472 q 272 429 272 444 l 272 397 q 212 388 221 397 q 203 329 203 379 l 144 329 l 144 392 q 203 401 192 392 q 214 457 214 410 l 235 457 q 273 469 261 457 q 307 503 285 482 q 283 543 293 526 q 251 560 274 560 l 219 560 q 160 542 174 560 q 138 492 149 513 q 106 553 110 550 q 51 578 88 557 q 93 600 78 592 q 138 665 108 608 q 160 611 149 638 q 219 596 172 596 q 276 604 268 596 q 307 653 289 626 q 274 688 288 674 q 247 703 260 703 q 211 701 229 701 q 203 761 211 753 q 144 769 194 769 l 144 831 l 203 831 q 211 771 203 779 q 272 763 219 763 q 271 725 271 732 q 284 700 271 714 q 318 664 297 686 q 371 699 344 681 q 378 751 378 706 q 364 810 378 799 q 307 833 333 821 q 368 861 338 847 q 393 919 372 878 m 307 576 q 331 513 307 538 q 390 489 356 489 q 453 513 425 489 q 481 576 481 536 q 453 642 481 615 q 392 669 426 669 q 332 643 357 669 q 307 576 307 617 z "},"+":{"ha":782,"x_min":64,"x_max":722,"o":"m 392 556 q 449 565 426 556 q 503 600 472 574 q 449 534 485 556 q 414 442 414 513 q 422 376 414 385 q 494 368 431 368 q 572 403 554 368 q 646 458 590 439 q 608 402 618 424 q 599 347 599 381 q 607 291 599 313 q 646 233 615 269 q 573 288 590 251 q 494 325 556 325 q 424 319 435 325 q 414 274 414 314 l 414 244 q 451 169 414 183 q 503 103 489 156 q 459 131 481 121 q 392 140 438 140 q 330 133 351 140 q 281 100 308 126 q 335 168 297 153 q 372 244 372 183 q 367 315 372 304 q 322 325 361 325 l 297 325 q 216 291 233 325 q 144 235 199 257 q 181 291 172 269 q 189 347 189 313 q 174 414 189 386 q 143 458 154 442 q 217 404 201 440 q 297 368 233 368 q 364 376 356 368 q 372 442 372 385 q 334 531 372 510 q 281 600 296 553 q 332 565 308 574 q 392 556 356 556 m 693 319 q 664 349 664 319 q 693 376 664 376 q 722 347 722 376 q 693 319 722 319 m 393 619 q 364 649 364 619 q 393 676 364 676 q 422 647 422 676 q 393 619 422 619 m 393 19 q 364 49 364 19 q 393 76 364 76 q 422 47 422 76 q 393 19 422 19 m 93 319 q 64 349 64 319 q 93 376 64 376 q 122 347 122 376 q 93 319 122 319 m 392 378 q 363 347 363 378 q 392 319 363 319 q 421 350 421 319 q 392 378 421 378 z "},",":{"ha":333,"x_min":63,"x_max":239,"o":"m 167 132 q 239 -7 239 65 q 204 -103 239 -58 q 106 -183 169 -149 q 137 -137 126 -160 q 147 -93 147 -114 q 128 -33 147 -54 q 63 28 108 -11 q 94 85 74 56 q 167 132 115 115 z "},"-":{"ha":814,"x_min":110,"x_max":686,"o":"m 110 244 q 232 376 144 350 q 475 408 319 403 q 686 442 631 413 q 549 306 632 329 q 318 281 465 282 q 110 244 171 279 z "},".":{"ha":333,"x_min":49,"x_max":292,"o":"m 165 133 q 228 101 190 133 q 292 29 265 69 l 176 -86 q 113 -31 139 -50 q 49 13 88 -11 q 103 83 61 35 q 165 133 146 131 z "},"/":{"ha":644,"x_min":53,"x_max":592,"o":"m 522 914 l 592 914 l 122 -142 l 53 -142 l 522 914 z "},":":{"ha":333,"x_min":56,"x_max":276,"o":"m 172 454 q 231 408 186 454 q 276 349 276 361 q 238 297 276 338 q 154 233 199 257 q 107 300 131 274 q 56 349 65 339 q 128 423 97 392 q 172 454 158 454 m 172 128 q 231 83 186 128 q 276 24 276 38 q 154 -92 276 -24 q 102 -24 133 -56 q 56 24 71 8 q 128 97 97 67 q 172 128 158 128 z "},";":{"ha":333,"x_min":68,"x_max":292,"o":"m 188 454 q 247 408 203 454 q 292 349 292 363 q 257 300 292 336 q 176 238 222 264 q 129 304 150 282 q 75 351 85 342 q 158 439 143 424 q 188 454 174 454 m 172 132 q 244 -7 244 65 q 210 -103 244 -58 q 111 -183 175 -149 q 142 -137 132 -160 q 153 -93 153 -114 q 133 -33 153 -54 q 68 28 114 -11 q 100 85 79 56 q 172 132 121 115 z "},"<":{"ha":592,"x_min":132,"x_max":451,"o":"m 358 575 l 451 575 l 236 353 l 236 342 l 451 121 l 358 121 l 132 339 l 132 351 l 358 575 z "},"=":{"ha":578,"x_min":36,"x_max":524,"o":"m 50 185 q 128 273 79 243 q 292 303 176 303 q 328 302 310 303 q 367 301 347 301 q 463 309 429 301 q 524 331 496 317 q 415 236 476 256 q 257 217 353 217 q 127 213 163 217 q 50 185 92 210 m 36 367 q 133 464 74 443 q 286 485 192 485 l 344 485 q 437 490 400 485 q 510 514 474 494 q 399 418 463 438 q 238 399 336 399 q 103 392 138 399 q 36 367 69 386 z "},">":{"ha":507,"x_min":79,"x_max":411,"o":"m 79 578 l 183 578 l 411 351 l 411 339 l 179 119 l 86 119 l 307 339 l 307 351 l 79 578 z "},"?":{"ha":822,"x_min":60,"x_max":767,"o":"m 451 919 q 688 844 608 919 q 767 631 767 769 q 708 449 767 518 q 495 229 649 381 q 342 15 342 78 q 365 -41 342 -29 q 436 -53 389 -53 q 507 -7 472 -53 q 542 93 542 39 q 542 115 542 104 q 536 131 538 126 q 553 98 550 124 q 558 47 557 72 q 522 -81 558 -29 q 393 -132 485 -132 q 305 -101 339 -132 q 271 -4 271 -69 q 358 201 271 90 q 522 388 440 294 q 611 582 611 497 q 535 801 611 731 q 350 871 458 871 q 199 806 254 871 q 144 642 144 742 q 176 482 144 551 q 281 364 207 413 q 119 438 179 364 q 60 611 60 513 q 149 828 60 736 q 451 919 238 919 m 403 -236 q 447 -270 411 -236 q 525 -328 483 -304 q 463 -399 517 -340 q 392 -457 408 -457 q 350 -424 382 -457 q 269 -364 318 -392 q 336 -290 283 -344 q 403 -236 389 -236 z "},"@":{"ha":911,"x_min":36,"x_max":871,"o":"m 535 43 q 474 59 497 43 q 451 107 451 75 q 456 133 451 118 l 472 194 q 331 87 392 131 q 236 43 269 43 q 190 71 204 43 q 175 136 175 99 q 214 299 175 210 q 362 456 253 388 q 667 525 471 525 l 560 132 q 607 101 553 101 q 760 184 696 101 q 825 369 825 267 q 717 571 825 494 q 478 647 608 647 q 201 532 317 647 q 86 256 86 417 q 201 -21 86 94 q 478 -136 317 -136 q 650 -97 571 -136 q 786 14 729 -57 l 829 -8 q 674 -137 767 -89 q 475 -185 582 -185 q 164 -56 292 -185 q 36 256 36 74 q 164 567 36 438 q 475 696 292 696 q 744 610 618 696 q 871 389 871 525 q 787 138 871 232 q 535 43 703 43 m 303 242 q 315 200 303 214 q 353 186 328 186 q 486 246 403 186 l 553 493 q 378 410 454 493 q 303 242 303 326 z "},"A":{"ha":1090,"x_min":6,"x_max":1386,"o":"m 1386 -321 l 1281 -321 q 1029 -217 1132 -321 q 833 10 931 -103 q 454 225 683 157 q 350 101 415 178 q 196 -56 285 24 q 53 -136 107 -136 q 16 -126 26 -136 q 6 -89 6 -115 q 126 5 6 -68 q 408 240 246 78 q 290 256 346 256 q 201 245 232 256 q 121 210 169 235 q 213 264 161 247 q 324 281 265 281 q 431 269 378 281 q 653 606 558 429 q 788 926 747 782 q 894 462 833 715 q 1076 -15 956 208 q 1386 -321 1197 -237 m 704 625 q 605 441 661 531 q 478 258 549 351 q 677 195 585 232 q 833 107 769 158 q 765 318 803 169 q 704 625 728 467 z "},"B":{"ha":1269,"x_min":6,"x_max":1243,"o":"m 669 904 l 694 925 l 694 904 q 1038 820 925 904 q 1150 581 1150 736 q 1119 457 1150 492 q 1003 386 1089 422 q 1153 263 1064 364 q 1243 49 1243 161 q 1063 -214 1243 -124 q 650 -304 882 -304 q 411 -272 513 -304 q 290 -181 310 -239 q 403 -242 356 -225 q 517 -258 450 -258 l 517 536 q 557 702 517 596 q 632 854 597 808 q 188 774 301 854 q 75 572 75 694 q 136 359 75 440 q 353 188 197 278 q 94 284 183 188 q 6 525 6 381 q 166 809 6 714 q 669 904 326 904 m 693 -7 q 647 -148 693 -86 q 554 -257 601 -210 q 937 -197 811 -257 q 1063 38 1063 -137 q 998 269 1063 179 q 831 386 933 360 q 974 464 938 417 q 1011 581 1011 511 q 931 798 1011 742 q 693 854 851 854 l 693 -7 z "},"C":{"ha":1011,"x_min":21,"x_max":989,"o":"m 525 903 l 869 903 q 927 768 881 851 q 985 647 974 685 q 788 801 886 724 q 532 867 665 867 q 263 748 335 867 q 192 438 192 629 q 300 19 192 224 q 613 -186 408 -186 q 858 -122 779 -186 q 989 42 938 -58 q 904 -158 989 -87 q 588 -229 819 -229 q 182 -96 343 -229 q 21 304 21 38 q 169 742 21 581 q 525 903 318 903 z "},"D":{"ha":1388,"x_min":6,"x_max":1344,"o":"m 1344 300 q 1176 -155 1344 -7 q 574 -303 1007 -303 l 524 -303 q 316 -261 407 -303 q 192 -81 225 -219 q 313 -207 243 -174 q 467 -258 382 -240 l 467 542 q 510 701 467 601 q 588 846 553 800 q 199 795 322 846 q 75 578 75 744 q 135 363 75 438 q 357 194 194 288 q 94 288 182 194 q 6 519 6 381 q 130 794 6 689 q 619 900 254 900 l 644 922 l 644 900 q 1151 764 958 900 q 1344 300 1344 628 m 649 13 q 607 -122 649 -49 q 521 -256 565 -194 q 863 -224 725 -256 q 1085 -93 1001 -192 q 1169 197 1169 6 q 1057 677 1169 504 q 649 850 944 850 l 649 13 z "},"E":{"ha":1179,"x_min":6,"x_max":1156,"o":"m 531 904 l 553 925 l 553 904 l 1049 904 q 1095 770 1049 850 q 1156 642 1142 690 q 976 803 1065 722 q 764 861 879 861 l 551 861 l 551 426 q 687 565 619 511 q 853 618 754 618 q 936 588 907 618 q 965 507 965 557 q 936 408 965 461 q 940 468 940 444 q 920 542 940 525 q 864 560 900 560 q 670 437 789 560 q 551 131 551 314 q 588 -7 551 17 q 747 -31 625 -31 q 989 33 885 -31 q 1153 218 1093 96 q 1112 76 1146 153 q 1049 -65 1078 -1 l 240 -65 q 293 -37 267 -51 q 376 85 376 14 l 376 572 q 394 684 376 638 q 481 861 411 731 q 165 795 256 861 q 75 572 75 729 q 127 335 75 415 q 296 190 179 256 q 69 289 133 190 q 6 536 6 388 q 125 809 6 714 q 531 904 244 904 z "},"F":{"ha":1276,"x_min":6,"x_max":1394,"o":"m 1394 925 q 1253 815 1340 856 q 1072 775 1167 775 l 563 775 q 809 649 675 753 q 961 379 943 544 q 1130 420 1051 379 q 1247 556 1208 461 l 1165 208 q 1125 329 1144 268 q 1035 303 1076 313 q 969 288 994 293 q 821 -150 969 6 q 447 -306 672 -306 q 156 -210 238 -306 q 75 26 75 -114 q 195 285 75 201 q 493 369 315 369 l 779 369 q 632 662 743 567 q 365 757 521 757 q 147 692 228 757 q 6 497 67 626 q 151 789 6 675 q 481 903 296 903 q 772 901 589 903 q 1024 900 954 900 q 1272 905 1185 900 q 1394 925 1358 910 m 133 61 q 232 -160 133 -60 q 458 -260 331 -260 q 704 -123 625 -260 q 783 282 783 14 l 376 282 q 205 221 276 282 q 133 61 133 160 z "},"G":{"ha":1175,"x_min":18,"x_max":1169,"o":"m 596 925 q 810 899 668 925 q 992 872 953 872 q 936 752 949 789 q 915 660 924 715 q 774 836 871 788 q 525 885 676 885 q 265 764 340 885 q 189 456 189 643 q 298 2 189 196 q 619 -192 407 -192 q 822 -120 744 -192 q 899 74 899 -49 q 842 221 899 194 q 631 247 785 247 q 499 233 560 247 q 392 154 438 219 q 465 292 392 221 q 642 364 538 364 q 717 363 678 364 q 796 363 756 363 q 1026 369 933 363 q 1169 397 1119 376 q 1094 290 1150 344 q 936 236 1038 236 q 972 177 963 206 q 982 86 982 149 q 872 -158 982 -87 q 583 -228 761 -228 q 152 -68 286 -228 q 18 306 18 92 q 170 757 18 589 q 596 925 322 925 z "},"H":{"ha":1267,"x_min":6,"x_max":1246,"o":"m 365 904 l 688 904 q 590 841 628 879 q 551 747 551 803 l 551 365 q 747 493 653 447 q 929 554 842 539 l 929 733 q 906 834 929 800 q 797 904 882 868 l 1236 904 q 1130 829 1150 879 q 1106 733 1110 779 l 1107 568 q 1210 536 1186 556 q 1246 467 1235 517 q 1183 514 1206 503 q 1108 525 1160 525 l 1108 86 q 1144 -6 1108 32 q 1236 -65 1181 -43 l 807 -65 q 896 -4 864 -42 q 928 86 928 33 l 928 511 q 686 371 821 490 q 551 119 551 251 q 585 -6 551 29 q 679 -65 619 -40 l 243 -65 q 338 3 297 -43 q 378 106 378 49 l 378 793 q 356 845 378 828 q 296 863 335 863 q 148 808 221 863 q 75 631 75 754 q 129 419 75 504 q 304 269 183 333 q 78 361 150 269 q 6 583 6 453 q 113 819 6 735 q 365 904 221 904 z "},"I":{"ha":807,"x_min":6,"x_max":863,"o":"m 394 904 l 863 904 q 736 749 736 851 l 736 97 q 763 8 736 53 q 863 -68 790 -37 l 435 -68 q 561 97 561 -12 l 561 681 q 582 799 561 760 q 631 860 613 838 l 382 860 q 141 788 207 860 q 75 585 75 715 q 131 399 75 482 q 272 315 186 315 q 372 386 353 315 q 428 457 392 457 q 454 422 454 457 q 404 328 454 374 q 261 283 354 283 q 73 369 140 283 q 6 585 6 456 q 132 827 6 750 q 394 904 258 904 z "},"J":{"ha":931,"x_min":6,"x_max":1007,"o":"m 544 904 l 1007 904 q 913 840 946 879 q 879 746 879 800 l 879 85 q 840 -151 879 -29 q 681 -368 800 -272 q 343 -464 561 -464 q 79 -378 153 -464 q 6 -172 6 -293 q 35 -20 6 -90 q 138 50 65 50 q 65 -8 89 35 q 42 -103 42 -50 q 142 -331 42 -237 q 379 -424 242 -424 q 624 -301 544 -424 q 704 -19 704 -178 l 704 669 q 717 773 704 742 q 775 858 731 804 l 483 858 q 274 776 333 858 q 215 582 215 694 q 273 394 215 476 q 428 311 331 311 q 544 354 504 311 q 603 469 583 397 q 545 320 603 360 q 403 281 488 281 q 213 367 279 281 q 146 569 146 453 q 267 814 146 724 q 544 904 388 904 z "},"K":{"ha":1219,"x_min":6,"x_max":2031,"o":"m 411 904 l 1325 904 q 1189 856 1247 890 q 1074 766 1131 821 q 933 626 1017 711 q 833 524 849 542 q 818 485 818 506 q 838 444 818 468 q 1013 231 857 419 q 1301 -110 1168 42 q 1547 -342 1435 -261 q 1764 -422 1658 -422 q 1901 -368 1851 -422 q 1950 -237 1950 -314 q 1935 -178 1950 -201 q 1903 -133 1919 -156 q 1919 -106 1903 -114 q 1950 -99 1935 -99 q 2010 -135 1990 -99 q 2031 -225 2031 -171 q 1960 -388 2031 -318 q 1776 -458 1890 -458 q 1476 -349 1633 -458 q 1156 -72 1318 -240 q 696 429 993 97 l 696 99 q 731 -15 696 17 q 815 -68 765 -47 l 342 -68 q 478 -3 442 -46 q 515 99 515 40 l 515 758 q 477 843 515 817 q 388 869 439 869 q 156 799 238 869 q 75 585 75 729 q 137 347 75 447 q 342 203 199 246 q 85 300 164 203 q 6 549 6 397 q 125 808 6 711 q 411 904 244 904 m 696 758 l 696 479 q 892 669 769 551 q 1037 811 1015 788 q 1058 847 1058 835 q 1030 874 1058 868 q 950 881 1001 881 l 908 881 q 749 859 803 881 q 696 758 696 838 z "},"L":{"ha":801,"x_min":6,"x_max":1575,"o":"m 354 904 l 957 904 q 769 840 803 871 q 736 747 736 810 l 736 85 q 817 -86 736 29 q 1032 -290 897 -201 q 1332 -379 1167 -379 q 1448 -353 1401 -379 q 1494 -275 1494 -328 q 1461 -208 1494 -233 q 1403 -164 1428 -182 q 1444 -115 1421 -128 q 1507 -101 1468 -101 q 1561 -144 1547 -101 q 1575 -229 1575 -187 q 1520 -365 1575 -317 q 1308 -414 1465 -414 q 1002 -351 1107 -414 q 778 -176 897 -287 q 586 -65 658 -65 l 342 -65 q 175 -124 250 -65 q 99 -197 136 -160 q 288 -32 163 -62 q 476 -12 382 -22 q 563 117 563 6 l 563 738 q 519 834 563 799 q 400 869 475 869 q 148 796 221 869 q 75 585 75 722 q 141 404 75 478 q 281 331 207 331 q 383 364 332 331 q 463 494 435 397 q 410 347 463 390 q 272 303 358 303 q 72 374 139 303 q 6 561 6 446 q 118 819 6 735 q 354 904 231 904 z "},"M":{"ha":1353,"x_min":-15,"x_max":1688,"o":"m 564 925 q 714 855 660 925 q 794 686 768 785 q 844 506 821 588 q 886 369 867 424 q 940 549 913 458 q 1085 815 997 706 q 1304 925 1174 925 q 1402 901 1365 925 q 1457 839 1439 878 q 1393 884 1429 869 q 1317 899 1357 899 q 1182 818 1231 899 q 1133 642 1133 738 q 1201 322 1133 524 q 1394 -58 1268 121 q 1688 -306 1519 -237 l 1558 -306 q 1193 -107 1314 -306 q 1032 358 1072 92 q 1013 592 1022 475 q 924 338 975 518 q 850 56 872 157 q 783 205 819 108 q 699 438 746 301 q 633 631 653 575 q 581 281 633 510 q 428 -128 528 53 q 192 -308 328 -308 q 46 -229 107 -308 q -15 -42 -15 -150 q 78 -116 21 -86 q 203 -146 136 -146 q 437 7 349 -146 q 561 347 525 160 q 597 642 597 535 q 569 831 597 776 q 447 885 542 885 q 176 797 276 885 q 76 560 76 710 q 119 365 76 449 q 215 236 167 300 q 185 204 215 218 q 135 190 156 190 q 49 288 92 225 q 7 492 7 350 q 152 815 7 706 q 564 925 297 925 z "},"N":{"ha":1142,"x_min":6,"x_max":1606,"o":"m 436 915 q 635 860 588 915 q 768 682 682 804 l 1022 150 l 1022 753 q 982 848 1022 814 q 886 904 942 882 l 1236 904 q 1097 844 1133 882 q 1061 753 1061 807 l 1061 76 q 1236 -216 1160 -146 q 1432 -286 1313 -286 q 1516 -263 1467 -286 q 1606 -206 1565 -240 q 1519 -290 1568 -258 q 1375 -321 1471 -321 q 1039 -138 1171 -321 q 750 379 907 44 q 504 794 593 714 l 504 86 q 544 -5 504 31 q 643 -65 583 -40 l 296 -65 q 431 -8 397 -43 q 465 86 465 28 l 465 826 q 408 869 435 857 q 331 881 381 881 q 135 803 196 881 q 75 607 75 726 q 138 381 75 461 q 314 247 200 301 q 81 339 157 247 q 6 564 6 431 q 117 833 6 751 q 436 915 228 915 z "},"O":{"ha":1225,"x_min":46,"x_max":1193,"o":"m 625 926 q 1049 788 904 926 q 1193 386 1193 649 q 1041 -70 1193 88 q 614 -228 889 -228 q 191 -85 336 -228 q 46 306 46 57 q 90 565 46 425 q 264 815 135 704 q 625 926 393 926 m 219 468 q 331 -5 219 171 q 683 -181 443 -181 q 950 -74 875 -181 q 1025 225 1025 33 q 990 539 1025 396 q 853 782 954 682 q 571 882 751 882 q 316 788 413 882 q 219 468 219 694 z "},"P":{"ha":1169,"x_min":6,"x_max":1153,"o":"m 647 933 l 647 908 q 674 910 663 910 q 868 884 761 910 q 1064 774 975 858 q 1153 525 1153 689 q 1071 304 1153 378 q 864 231 989 231 q 740 260 786 231 q 693 322 693 290 q 774 267 756 275 q 836 260 793 260 q 967 326 913 260 q 1021 536 1021 392 q 901 801 1021 735 q 643 868 782 868 l 643 108 q 737 -30 643 24 q 831 -137 831 -83 q 829 -158 831 -151 q 743 -83 800 -100 q 596 -65 686 -65 q 317 -153 419 -65 q 214 -332 214 -240 q 224 -381 214 -365 q 292 -436 235 -397 q 268 -437 276 -437 q 184 -418 222 -437 q 146 -343 146 -399 q 229 -185 146 -271 q 385 -42 307 -112 q 469 108 469 43 l 469 543 q 496 712 469 606 q 586 868 522 818 q 181 790 286 868 q 75 590 75 713 q 150 351 75 449 q 374 186 225 253 q 100 278 194 186 q 6 532 6 369 q 169 817 6 726 q 619 908 332 908 l 647 933 z "},"Q":{"ha":1263,"x_min":31,"x_max":1503,"o":"m 613 925 q 1035 783 889 925 q 1182 385 1182 640 q 1113 63 1182 197 q 961 -137 1036 -37 q 997 -204 979 -171 q 1127 -337 1047 -281 q 1319 -394 1207 -394 q 1426 -375 1392 -394 q 1503 -300 1461 -356 q 1429 -399 1503 -357 q 1249 -442 1356 -442 q 1019 -370 1104 -442 q 857 -185 933 -299 q 747 -217 818 -204 q 601 -231 675 -231 q 170 -83 310 -231 q 31 303 31 64 q 191 770 31 615 q 613 925 351 925 m 203 467 q 329 -19 203 150 q 636 -189 456 -189 q 734 -180 679 -189 q 838 -150 789 -171 q 686 85 776 -18 q 508 189 596 189 q 435 174 461 189 q 388 133 410 160 q 439 211 394 189 q 543 233 483 233 q 766 140 669 233 q 925 -86 863 46 q 990 46 972 -37 q 1008 222 1008 129 q 972 523 1008 375 q 835 776 935 671 q 564 881 736 881 q 296 790 389 881 q 203 467 203 700 z "},"R":{"ha":1278,"x_min":6,"x_max":1896,"o":"m 1246 618 q 1138 399 1246 479 q 865 319 1029 319 q 1011 73 918 226 q 1265 -241 1104 -81 q 1592 -401 1426 -401 q 1767 -351 1676 -401 q 1896 -262 1857 -301 q 1743 -406 1833 -354 q 1500 -458 1653 -458 q 1162 -340 1311 -458 q 909 -53 1013 -221 q 700 340 806 114 q 977 385 883 340 q 1071 571 1071 429 q 983 795 1071 726 q 643 864 894 864 l 643 86 q 672 -1 643 38 q 769 -67 700 -40 l 296 -67 q 423 -8 376 -51 q 469 97 469 35 l 469 547 q 500 724 469 628 q 581 864 531 819 q 177 792 279 864 q 75 594 75 719 q 141 378 75 474 q 367 215 207 282 q 99 310 193 215 q 6 547 6 406 q 146 817 6 726 q 624 907 286 907 l 646 928 l 646 906 q 1112 844 978 906 q 1246 618 1246 783 z "},"S":{"ha":1097,"x_min":6,"x_max":1051,"o":"m 388 904 l 847 904 q 906 746 847 854 q 971 614 965 638 q 731 810 847 751 q 440 869 615 869 q 249 817 311 869 q 188 683 188 764 q 403 490 188 542 q 826 392 618 439 q 1051 88 1051 306 q 942 -205 1051 -85 q 574 -325 832 -325 q 305 -297 426 -325 q 94 -179 183 -269 q 6 86 6 -89 q 21 204 6 156 q 86 281 36 253 q 58 224 64 256 q 51 149 51 193 q 222 -124 51 -18 q 654 -231 392 -231 q 894 -172 818 -231 q 969 7 969 -114 q 750 251 969 185 q 342 346 546 299 q 121 625 121 422 q 200 822 121 740 q 388 904 279 904 z "},"T":{"ha":1042,"x_min":3,"x_max":1383,"o":"m 1383 929 q 1203 803 1299 839 q 975 767 1107 767 l 571 767 q 694 720 599 767 q 876 556 789 674 q 964 240 964 439 q 815 -162 964 -28 q 444 -297 665 -297 q 140 -173 240 -297 q 39 88 39 -49 q 119 338 39 236 q 351 440 199 440 q 524 373 453 440 q 596 203 596 306 q 550 83 596 133 q 454 18 504 33 q 494 100 481 63 q 508 192 508 138 q 458 348 508 294 q 329 401 408 401 q 175 327 253 401 q 97 122 97 253 q 197 -143 97 -35 q 454 -251 297 -251 q 700 -114 619 -251 q 781 201 781 24 q 663 624 781 483 q 364 764 544 764 q 142 699 215 764 q 3 497 68 633 q 145 796 3 689 q 479 903 288 903 l 618 903 l 728 903 l 815 903 l 885 903 l 939 903 l 982 903 l 1014 903 l 1040 903 l 1061 903 l 1076 903 q 1110 903 1097 903 q 1128 904 1122 903 q 1245 912 1169 904 q 1383 929 1321 919 z "},"U":{"ha":1281,"x_min":6,"x_max":1344,"o":"m 494 904 l 819 904 q 580 583 653 729 q 507 275 507 438 q 579 8 507 64 q 788 -49 651 -49 q 948 7 872 -49 q 1024 136 1024 63 l 1024 822 q 1007 876 1024 861 q 953 904 990 890 l 1221 904 q 1292 883 1258 904 q 1344 829 1325 863 q 1301 856 1324 842 q 1256 869 1278 869 q 1219 853 1240 869 q 1197 799 1197 838 l 1197 90 q 1231 3 1197 46 q 1332 -65 1264 -40 l 1024 -65 l 1024 6 q 879 -134 972 -67 q 669 -201 786 -201 q 402 -89 479 -201 q 325 218 325 24 q 383 500 325 375 q 520 712 442 625 q 681 863 599 799 l 436 863 q 174 776 261 863 q 88 554 88 689 q 126 384 88 463 q 244 264 164 306 q 71 356 136 276 q 6 543 6 436 q 119 788 6 672 q 494 904 233 904 z "},"V":{"ha":1333,"x_min":3,"x_max":1290,"o":"m 421 904 l 769 904 q 645 693 699 833 q 592 358 592 553 q 658 -33 592 136 q 838 -201 725 -201 q 931 -141 864 -201 q 1056 43 999 -81 q 1113 347 1113 167 q 1053 578 1113 474 q 908 683 994 683 q 876 668 893 683 q 833 625 858 653 q 903 781 846 704 q 1013 858 960 858 q 1187 723 1083 858 q 1290 418 1290 588 q 1122 -8 1290 228 q 781 -243 953 -243 q 506 -81 594 -243 q 417 301 417 81 q 475 604 417 467 q 625 864 533 742 l 439 864 q 179 787 285 864 q 74 581 74 710 q 129 382 74 485 q 328 197 185 279 q 95 288 188 197 q 3 521 3 379 q 130 803 3 703 q 421 904 257 904 z "},"W":{"ha":1575,"x_min":6,"x_max":1850,"o":"m 375 904 l 735 904 q 644 884 701 900 q 586 833 586 868 q 589 821 586 829 l 851 153 q 891 259 868 194 q 952 434 914 324 q 1007 593 990 544 q 926 793 951 738 q 806 904 900 849 l 1232 904 q 1101 821 1101 864 q 1106 797 1101 810 l 1360 153 q 1478 510 1433 374 q 1528 674 1522 647 q 1533 718 1533 700 q 1478 835 1533 792 q 1340 904 1422 879 l 1850 904 q 1683 827 1751 886 q 1592 714 1614 768 l 1300 -162 l 1031 538 l 792 -162 q 712 47 785 -140 q 584 374 639 233 q 478 647 529 515 q 394 822 426 779 q 314 864 361 864 q 156 795 226 864 q 86 592 86 726 q 142 391 86 486 q 297 296 199 296 q 398 338 351 296 q 444 432 444 381 q 431 482 444 458 q 464 414 464 457 q 411 311 464 358 q 272 264 358 264 q 97 332 188 264 q 6 546 6 400 q 115 813 6 722 q 375 904 224 904 z "},"X":{"ha":1125,"x_min":6,"x_max":1713,"o":"m 436 919 q 713 817 614 919 q 836 619 813 715 l 968 835 q 949 876 954 867 q 897 904 943 885 l 1246 904 q 1015 811 1068 875 q 850 576 961 747 q 1121 -24 949 185 q 1481 -232 1293 -232 q 1617 -199 1563 -232 q 1713 -119 1672 -165 q 1594 -238 1667 -200 q 1399 -276 1521 -276 q 1031 -143 1178 -276 q 816 135 885 -10 q 714 397 747 281 q 588 206 626 267 q 522 92 549 146 q 496 -1 496 38 q 519 -44 496 -28 q 556 -69 542 -60 l 250 -69 q 401 27 336 -36 q 542 207 465 90 q 697 443 619 324 q 610 696 644 615 q 512 831 576 776 q 342 885 447 885 q 146 783 204 885 q 88 536 88 682 q 126 356 88 421 q 261 235 165 290 q 65 322 124 235 q 6 525 6 410 q 103 802 6 685 q 436 919 201 919 z "},"Y":{"ha":582,"x_min":-108,"x_max":1213,"o":"m 939 947 q 1139 856 1065 947 q 1213 633 1213 765 q 1091 820 1150 776 q 928 864 1032 864 q 688 769 778 864 q 558 555 597 675 q 519 364 519 435 l 519 97 q 558 3 519 50 q 671 -65 596 -44 l 264 -65 q 359 -6 326 -40 q 392 86 392 28 l 392 388 q 335 542 392 435 q 167 753 279 649 q -108 904 56 857 l 335 904 q 274 875 299 890 q 249 835 249 860 q 307 763 249 833 q 415 616 365 692 q 475 486 465 540 q 631 800 511 653 q 939 947 750 947 z "},"Z":{"ha":1089,"x_min":22,"x_max":1060,"o":"m 1050 921 l 564 497 q 905 379 750 497 q 1060 39 1060 261 q 1013 -151 1060 -35 q 831 -366 967 -268 q 442 -464 694 -464 q 131 -363 240 -464 q 22 -87 22 -262 q 124 167 22 74 q 379 261 225 261 q 619 177 532 261 q 706 -21 706 93 q 689 -111 706 -67 q 578 111 689 8 q 331 214 467 214 q 161 144 213 214 q 110 -31 110 75 q 208 -312 110 -211 q 464 -414 307 -414 q 763 -273 647 -414 q 878 63 878 -132 q 778 322 878 224 q 521 421 678 421 q 357 394 440 421 l 781 767 l 303 767 q 149 736 235 767 q 58 697 68 701 q 196 833 100 763 q 404 904 292 904 l 914 904 q 939 903 929 903 q 992 906 967 903 q 1050 921 1018 910 z "},"[":{"ha":364,"x_min":51,"x_max":319,"o":"m 51 688 l 319 688 l 319 653 l 225 653 l 225 -194 l 319 -194 l 319 -229 l 51 -229 l 51 688 z "},"\\":{"ha":631,"x_min":64,"x_max":574,"o":"m 64 781 l 122 781 l 574 -136 l 515 -136 l 64 781 z "},"]":{"ha":378,"x_min":51,"x_max":319,"o":"m 51 688 l 319 688 l 319 -229 l 51 -229 l 51 -194 l 144 -194 l 144 653 l 51 653 l 51 688 z "},"^":{"ha":551,"x_min":42,"x_max":511,"o":"m 278 475 l 511 235 l 447 235 l 285 397 l 269 397 l 106 235 l 42 235 q 149 346 44 238 q 278 475 254 454 z "},"_":{"ha":631,"x_min":-3,"x_max":636,"o":"m -3 -56 l 636 -56 l 636 -90 l -3 -90 l -3 -56 z "},"`":{"ha":281,"x_min":25,"x_max":236,"o":"m 236 647 q 120 714 215 647 q 25 831 25 781 q 54 853 25 853 q 178 750 103 853 q 236 647 207 699 z "},"a":{"ha":642,"x_min":36,"x_max":636,"o":"m 532 594 l 532 81 q 550 63 533 63 q 580 72 563 63 q 636 103 597 81 q 576 29 618 65 q 494 -7 533 -7 q 437 24 472 -7 q 401 106 401 54 l 401 181 q 258 44 317 96 q 157 -7 200 -7 q 73 49 110 -7 q 36 197 36 104 q 140 490 36 386 q 411 594 244 594 l 532 594 m 169 303 q 192 203 169 235 q 253 171 214 171 q 324 191 286 171 q 401 246 363 211 l 401 556 q 233 478 297 556 q 169 303 169 401 z "},"b":{"ha":514,"x_min":31,"x_max":485,"o":"m 164 367 q 296 538 233 482 q 403 594 358 594 q 469 567 453 594 q 485 468 485 540 l 485 299 q 406 74 485 156 q 215 -7 328 -7 q 81 49 132 -7 q 31 242 31 104 l 31 686 q 84 857 31 788 q 225 926 138 926 l 350 926 q 235 841 306 846 q 164 815 164 836 l 164 367 m 164 175 q 253 53 164 53 q 320 91 290 53 q 350 219 350 129 l 350 397 q 344 442 350 426 q 310 458 339 458 q 214 390 264 458 q 164 294 164 322 l 164 175 z "},"c":{"ha":547,"x_min":25,"x_max":526,"o":"m 353 599 q 467 563 407 599 q 526 476 526 528 q 490 425 526 463 q 428 372 454 388 q 364 474 415 435 q 258 513 313 513 q 174 456 207 513 q 142 325 142 400 q 203 137 142 192 q 344 82 265 82 q 417 101 378 82 q 497 147 456 119 q 387 28 442 63 q 235 -6 332 -6 q 63 67 100 -6 q 25 244 25 139 q 117 501 25 404 q 353 599 208 599 z "},"d":{"ha":636,"x_min":36,"x_max":721,"o":"m 532 81 q 550 63 533 63 q 580 72 563 63 q 636 103 597 81 q 576 31 619 67 q 494 -8 533 -4 q 437 24 472 -8 q 401 106 401 56 l 401 181 q 259 44 318 97 q 157 -8 200 -8 q 73 48 110 -8 q 36 197 36 104 q 139 490 36 386 q 401 594 242 594 l 401 689 q 454 858 401 789 q 597 926 507 926 l 721 926 q 604 841 676 846 q 532 815 532 836 l 532 81 m 169 303 q 192 203 169 235 q 253 171 214 171 q 324 191 286 171 q 401 246 363 211 l 401 556 q 233 478 297 556 q 169 303 169 401 z "},"e":{"ha":575,"x_min":42,"x_max":543,"o":"m 356 600 q 445 581 410 600 q 542 500 481 561 l 204 163 q 273 103 232 117 q 365 90 314 90 q 462 114 417 90 q 543 164 507 138 q 421 37 488 79 q 268 -6 354 -6 q 93 74 144 -6 q 42 244 42 153 q 132 503 42 406 q 356 600 222 600 m 192 194 q 289 289 240 242 q 363 408 363 368 q 339 484 363 457 q 276 511 315 511 q 200 453 228 511 q 172 317 172 396 q 176 253 172 283 q 192 194 181 224 z "},"f":{"ha":396,"x_min":-178,"x_max":554,"o":"m 393 625 q 327 538 365 561 q 221 514 289 514 l 221 -65 q 145 -369 221 -275 q -31 -464 69 -464 l -178 -464 q -29 -371 -150 -374 q 92 -272 92 -368 l 92 514 l -4 514 l 69 596 l 93 596 l 93 664 q 147 849 93 771 q 288 926 200 926 l 554 926 q 465 851 519 867 q 326 836 410 836 q 240 833 258 836 q 221 803 221 829 l 221 596 q 393 625 379 596 z "},"g":{"ha":569,"x_min":36,"x_max":532,"o":"m 532 -71 q 433 -351 532 -236 q 207 -467 333 -467 q 77 -411 114 -467 q 40 -268 40 -356 q 60 -149 40 -208 q 157 0 81 -89 q 72 52 108 0 q 36 197 36 104 q 156 486 36 378 q 411 594 276 594 l 532 596 l 532 -71 m 401 181 q 203 -17 301 82 q 124 -239 124 -128 q 158 -351 124 -318 q 253 -385 193 -385 q 360 -324 319 -385 q 401 -178 401 -262 l 401 181 m 169 303 q 192 203 169 235 q 253 171 214 171 q 324 191 286 171 q 401 246 363 211 l 401 556 q 233 478 297 556 q 169 303 169 401 z "},"h":{"ha":597,"x_min":29,"x_max":579,"o":"m 485 468 l 483 81 q 500 63 485 63 q 579 103 521 63 q 522 28 560 61 q 436 -6 483 -6 q 369 24 389 -6 q 350 97 350 54 l 350 397 q 344 442 350 426 q 310 458 339 458 q 214 390 264 458 q 164 294 164 322 l 164 131 q 125 36 164 78 q 29 -6 86 -6 l 29 686 q 83 856 29 786 q 225 926 138 926 l 350 926 q 235 841 306 846 q 164 815 164 836 l 164 367 q 297 540 233 483 q 403 597 360 597 q 469 569 453 597 q 485 468 485 542 z "},"i":{"ha":363,"x_min":18,"x_max":344,"o":"m 188 904 q 246 879 222 904 q 269 811 269 854 q 228 735 269 763 q 153 707 186 707 q 109 738 124 707 q 94 811 94 769 q 119 884 94 864 q 188 904 144 904 m 169 601 q 230 568 213 601 q 247 489 247 535 l 247 99 q 276 60 253 60 q 315 78 293 60 q 344 101 338 96 q 277 18 311 44 q 200 -8 243 -8 q 142 22 164 -8 q 119 94 119 53 l 119 504 q 100 531 119 531 q 18 483 74 531 q 75 556 25 510 q 169 601 125 601 z "},"j":{"ha":272,"x_min":-269,"x_max":247,"o":"m 157 604 q 222 567 210 604 q 236 489 233 529 l 236 -65 q 128 -344 236 -222 q -89 -467 21 -467 q -232 -376 -194 -467 q -269 -142 -269 -285 q -169 -312 -232 -251 q -8 -374 -107 -374 q 88 -306 67 -374 q 108 -131 108 -237 l 108 506 q 88 533 108 533 q 15 501 65 533 q 72 570 39 536 q 157 604 106 604 m 165 904 q 224 879 200 904 q 247 811 247 854 q 206 735 247 763 q 131 707 164 707 q 87 738 101 707 q 72 811 72 769 q 97 884 72 864 q 165 904 122 904 z "},"k":{"ha":594,"x_min":29,"x_max":597,"o":"m 164 374 q 321 533 251 471 q 454 596 390 596 l 582 596 q 391 510 489 568 q 229 393 293 451 q 389 231 326 375 q 518 86 451 86 q 551 94 532 86 q 597 121 569 101 q 531 36 578 78 q 439 -6 485 -6 q 308 143 372 -6 q 164 300 243 292 l 164 131 q 125 36 164 78 q 29 -6 86 -6 l 29 686 q 83 856 29 786 q 225 926 138 926 l 350 926 q 235 841 306 846 q 164 815 164 836 l 164 374 z "},"l":{"ha":306,"x_min":28,"x_max":350,"o":"m 28 686 q 83 856 28 786 q 225 926 138 926 l 350 926 q 235 841 306 846 q 164 815 164 836 l 164 108 q 183 83 164 83 q 228 102 200 83 q 292 151 257 121 q 203 40 257 88 q 107 -8 150 -8 q 47 23 65 -8 q 28 108 28 54 l 28 686 z "},"m":{"ha":946,"x_min":-37,"x_max":929,"o":"m 382 -8 l 382 397 q 375 448 382 429 q 336 467 368 467 q 244 394 301 467 q 188 308 188 321 l 188 72 q 140 17 181 43 q 58 -8 99 -8 l 58 467 q 42 489 58 489 q -37 451 21 489 q 59 556 15 518 q 128 594 103 594 q 177 552 167 594 q 188 421 188 510 l 188 369 q 302 524 242 454 q 429 594 363 594 q 497 560 481 594 q 514 456 514 525 q 513 415 514 435 q 513 374 513 394 q 627 521 564 447 q 754 594 690 594 q 817 571 799 594 q 836 490 836 547 l 836 90 q 857 57 836 57 q 929 101 881 57 q 875 24 913 56 q 789 -8 838 -8 q 708 96 708 -8 l 708 397 q 697 450 708 433 q 661 467 686 467 q 571 393 629 467 q 513 308 513 319 l 513 72 q 466 17 506 43 q 382 -8 426 -8 z "},"n":{"ha":619,"x_min":-37,"x_max":610,"o":"m 513 88 q 533 57 513 57 q 610 103 561 57 q 540 21 582 50 q 464 -8 497 -8 q 403 15 426 -8 q 381 85 381 38 l 382 397 q 375 448 382 429 q 336 467 368 467 q 244 394 301 467 q 188 308 188 321 l 188 72 q 140 17 181 43 q 58 -8 99 -8 l 58 467 q 42 489 58 489 q -37 451 21 489 q 59 556 15 518 q 128 594 103 594 q 177 552 167 594 q 188 421 188 510 l 188 369 q 302 524 242 454 q 429 594 363 594 q 497 560 481 594 q 514 456 514 525 q 513 415 514 435 q 513 374 513 394 q 512 288 513 333 q 511 179 511 243 q 511 116 511 143 q 513 88 511 89 z "},"o":{"ha":625,"x_min":36,"x_max":582,"o":"m 339 601 q 517 519 453 601 q 582 317 582 438 q 488 90 582 189 q 276 -8 393 -8 q 101 74 167 -8 q 36 282 36 157 q 128 504 36 407 q 339 601 219 601 m 158 364 q 188 154 158 250 q 322 58 218 58 q 419 108 382 58 q 457 236 457 158 q 419 442 457 349 q 292 536 382 536 q 194 488 231 536 q 158 364 158 439 z "},"p":{"ha":603,"x_min":-36,"x_max":568,"o":"m 160 603 q 191 581 185 603 q 197 456 197 558 q 274 549 235 501 q 396 603 328 603 q 506 527 443 603 q 568 317 568 451 q 458 86 568 179 q 278 -7 347 -7 q 237 9 260 -7 q 197 39 214 25 l 197 -264 q 244 -361 197 -315 q 299 -421 292 -407 q 212 -381 233 -387 q 163 -374 190 -374 q 98 -385 122 -374 q -31 -464 74 -396 q 22 -396 -25 -447 q 69 -285 69 -344 l 69 444 q 63 464 69 458 q 43 469 56 469 q -3 458 18 469 q -36 440 -25 447 q 56 549 4 494 q 160 603 107 603 m 197 169 q 226 101 197 132 q 297 69 254 69 q 397 138 360 69 q 433 282 433 206 q 406 431 433 385 q 338 476 379 476 q 244 433 290 476 q 197 368 197 389 l 197 169 z "},"q":{"ha":592,"x_min":36,"x_max":633,"o":"m 532 -233 q 572 -295 532 -257 q 633 -372 611 -333 q 574 -335 603 -343 q 503 -326 546 -326 q 415 -346 453 -326 q 313 -412 376 -365 q 357 -348 313 -403 q 401 -268 401 -293 l 401 181 q 258 44 317 96 q 157 -7 200 -7 q 73 49 110 -7 q 36 197 36 104 q 140 490 36 386 q 411 594 244 594 l 532 594 l 532 -233 m 169 303 q 192 203 169 235 q 253 171 214 171 q 324 191 286 171 q 401 246 363 211 l 401 556 q 233 478 297 556 q 169 303 169 401 z "},"r":{"ha":558,"x_min":-19,"x_max":526,"o":"m 144 601 q 194 565 183 601 q 204 436 204 528 l 204 374 q 311 521 257 447 q 446 601 379 601 q 505 574 483 601 q 526 508 526 547 q 474 403 526 461 q 369 296 421 346 q 384 342 376 310 q 392 400 392 375 q 381 450 392 431 q 346 469 371 469 q 280 422 319 469 q 204 325 240 374 l 204 65 q 149 20 181 43 q 75 -8 117 -3 l 75 451 q 47 481 75 481 q 18 472 35 481 q -19 442 1 463 q 60 544 3 488 q 144 601 117 601 z "},"s":{"ha":458,"x_min":24,"x_max":432,"o":"m 424 606 q 389 531 400 568 q 369 463 378 493 q 286 531 325 511 q 196 550 247 550 q 124 532 144 550 q 103 483 103 514 q 207 405 103 449 q 372 318 311 361 q 432 181 432 275 q 363 33 432 69 q 189 -3 294 -3 q 53 37 82 -3 q 24 231 24 76 q 110 100 50 158 q 253 42 169 42 q 349 128 349 42 q 247 215 349 169 q 89 304 146 261 q 32 449 32 347 q 86 569 32 536 q 231 603 140 603 q 296 594 254 603 q 344 586 338 586 q 382 590 367 586 q 424 606 397 593 z "},"t":{"ha":369,"x_min":-8,"x_max":346,"o":"m 201 596 l 315 596 q 265 547 297 556 q 201 536 232 538 l 201 115 q 225 85 201 85 q 274 103 244 85 q 346 161 304 122 q 254 40 307 88 q 147 -8 201 -8 q 90 26 106 -8 q 74 147 74 60 l 74 536 l -8 536 q 66 608 -4 568 q 201 814 136 647 l 201 596 z "},"u":{"ha":681,"x_min":-18,"x_max":669,"o":"m 131 603 q 188 568 176 603 q 201 497 199 533 l 201 236 l 201 199 q 212 133 201 156 q 260 110 222 110 q 346 163 294 110 q 397 258 397 217 l 397 497 q 434 572 397 540 q 525 603 471 603 l 525 108 q 535 97 529 103 q 557 92 542 92 q 603 106 576 92 q 669 158 631 121 q 580 51 639 110 q 468 -8 521 -8 q 413 15 429 -8 q 397 82 397 38 l 397 143 q 278 33 332 74 q 164 -8 224 -8 q 94 39 114 -8 q 74 154 74 86 l 74 476 q 68 515 74 503 q 44 528 63 528 q -18 503 22 528 q 51 578 14 554 q 131 603 89 603 z "},"v":{"ha":656,"x_min":-25,"x_max":632,"o":"m 524 622 q 589 566 546 622 q 632 442 632 510 q 540 257 632 407 q 400 -12 449 107 q 269 235 335 89 q 175 423 203 381 q 86 465 147 465 q 35 451 76 465 q -25 424 -6 436 q 74 534 3 469 q 179 599 146 599 q 329 408 242 599 q 456 169 417 217 q 497 245 475 193 q 518 351 518 297 q 491 441 518 406 q 407 513 464 476 q 459 582 422 542 q 524 622 496 622 z "},"w":{"ha":1065,"x_min":-36,"x_max":1042,"o":"m 939 647 q 1001 600 961 647 q 1042 508 1042 553 q 1006 409 1042 481 q 888 181 969 338 q 786 -25 807 25 q 576 397 681 186 q 467 168 554 333 q 371 -19 381 3 q 188 366 260 235 q 74 497 117 497 q 27 488 54 497 q -36 453 0 478 q 51 551 -7 500 q 163 601 110 601 q 313 403 218 601 q 429 165 407 204 q 492 293 439 178 q 557 439 546 408 q 532 476 544 457 q 482 508 514 499 q 529 570 503 539 q 586 601 556 601 q 647 548 619 601 q 744 344 675 494 q 844 168 814 193 q 904 278 869 200 q 939 383 939 357 q 906 471 939 424 q 832 543 874 518 q 889 618 861 589 q 939 647 917 647 z "},"x":{"ha":682,"x_min":-33,"x_max":663,"o":"m 138 603 q 269 535 221 603 q 347 376 317 468 q 397 456 360 399 q 435 542 435 513 q 381 596 435 571 l 608 596 q 485 519 535 568 q 365 338 435 471 q 445 146 396 233 q 554 58 494 58 q 593 67 575 58 q 663 104 611 76 q 597 20 639 49 q 497 -8 554 -8 q 361 55 415 -8 q 264 217 307 118 q 208 124 240 179 q 175 53 175 69 q 194 24 175 40 q 242 0 214 8 l 18 0 q 133 86 74 18 q 246 264 193 154 q 162 458 204 388 q 65 529 119 529 q -33 499 33 529 q 56 587 29 571 q 138 603 83 603 z "},"y":{"ha":649,"x_min":-25,"x_max":638,"o":"m 525 625 q 592 567 546 625 q 638 442 638 508 q 538 231 638 408 q 388 -49 438 53 q 338 -233 338 -151 q 377 -356 338 -301 q 482 -410 417 -410 q 566 -381 536 -410 q 626 -281 596 -353 q 563 -426 626 -387 q 417 -465 500 -465 q 258 -430 308 -465 q 208 -303 208 -394 q 252 -159 208 -229 q 375 15 296 -89 q 306 168 350 71 q 210 361 263 265 q 140 461 157 457 q 108 465 122 465 q 42 451 76 465 q -25 417 7 436 q 74 541 15 479 q 181 603 133 603 q 337 406 244 603 q 464 163 429 210 q 507 252 486 203 q 528 353 528 301 q 499 449 528 410 q 415 514 471 489 q 461 588 436 551 q 525 625 486 625 z "},"z":{"ha":569,"x_min":-14,"x_max":563,"o":"m 238 594 l 563 594 l 292 326 l 385 326 q 426 331 404 326 q 478 351 449 336 q 393 258 428 286 q 303 231 358 231 l 197 231 q 131 168 164 203 q 97 97 97 133 l 386 97 q 504 160 457 97 q 544 235 540 228 q 546 208 546 219 q 522 64 546 131 q 428 -3 499 -3 l 36 0 q 65 128 36 72 q 150 231 93 183 l 54 231 q 13 224 28 231 q -14 208 -3 217 q 60 287 18 247 q 153 326 103 326 l 242 326 l 414 497 l 179 497 q 118 485 139 497 q 97 442 97 474 q 124 393 97 410 q 169 372 158 378 q 67 397 96 372 q 38 454 38 421 q 99 563 38 532 q 238 594 161 594 z "},"{":{"ha":486,"x_min":68,"x_max":414,"o":"m 414 692 q 301 578 314 638 q 280 362 289 518 q 214 147 271 206 q 271 39 261 100 q 281 -128 281 -22 q 300 -300 281 -233 q 393 -415 319 -367 q 222 -308 300 -415 q 144 -136 144 -200 l 144 -71 q 130 93 144 32 q 68 154 115 154 q 130 217 115 154 q 144 379 144 279 l 144 425 q 223 592 144 492 q 414 692 301 692 z "},"|":{"ha":253,"x_min":81,"x_max":161,"o":"m 81 914 l 161 914 l 161 -372 l 81 -372 l 81 914 z "},"}":{"ha":486,"x_min":89,"x_max":435,"o":"m 358 425 l 358 376 q 373 217 358 279 q 435 154 388 154 q 373 92 388 154 q 358 -75 358 29 l 358 -136 q 281 -308 358 -200 q 108 -415 203 -415 q 215 -240 197 -356 q 223 -26 218 -137 q 289 147 228 86 q 223 363 232 204 q 201 580 214 522 q 89 692 189 638 q 280 592 201 692 q 358 425 358 493 z "},"~":{"ha":633,"x_min":51,"x_max":597,"o":"m 203 781 q 332 734 239 781 q 469 688 425 688 q 546 709 522 688 q 597 764 569 731 q 548 650 583 693 q 446 607 513 607 q 313 653 400 607 q 179 699 225 699 q 110 682 132 699 q 51 625 88 665 q 100 736 61 692 q 203 781 139 781 z "},"Ä":{"ha":872,"x_min":4,"x_max":1108,"o":"m 1108 -257 l 1025 -257 q 824 -174 906 -257 q 667 7 744 -83 q 364 181 546 126 q 283 83 333 143 q 159 -43 232 22 q 42 -108 86 -108 q 9 -98 14 -108 q 4 -71 4 -87 q 101 5 4 -54 q 326 192 197 64 q 229 206 272 206 q 158 196 183 206 q 97 168 132 186 q 170 212 129 199 q 260 225 211 225 q 296 223 276 225 q 344 215 315 221 q 522 485 447 344 q 631 742 597 625 q 734 289 701 417 q 861 -15 767 161 q 1108 -257 956 -190 m 535 875 q 565 858 554 875 q 576 819 576 842 q 560 786 576 793 q 521 779 544 779 q 491 797 503 779 q 479 835 479 814 q 494 863 479 851 q 535 875 508 875 m 719 875 q 751 859 739 875 q 763 819 763 843 q 747 786 763 793 q 707 779 731 779 q 679 793 693 779 q 665 835 665 807 q 682 864 665 853 q 719 875 699 875 m 564 500 q 484 352 529 422 q 382 207 439 282 q 540 156 464 186 q 667 86 617 126 q 564 500 608 210 z "},"Å":{"ha":872,"x_min":4,"x_max":1108,"o":"m 642 675 q 737 282 692 440 q 875 -35 782 124 q 1108 -257 968 -194 l 1025 -257 q 824 -174 906 -257 q 667 7 744 -83 q 364 181 546 126 q 283 83 333 143 q 159 -43 232 22 q 42 -108 86 -108 q 9 -98 14 -108 q 4 -71 4 -87 q 101 5 4 -54 q 326 192 197 64 q 229 206 272 206 q 158 196 183 206 q 97 168 132 186 q 170 212 129 199 q 260 225 211 225 q 296 223 276 225 q 344 215 315 221 q 501 445 432 324 q 608 675 569 567 q 532 717 564 682 q 500 799 500 753 q 538 890 500 853 q 629 928 575 928 q 720 891 682 928 q 758 800 758 854 q 725 716 758 750 q 642 675 692 682 m 631 738 q 678 756 658 738 q 697 803 697 774 q 676 847 697 829 q 628 865 656 865 q 582 847 600 865 q 564 803 564 829 q 582 756 564 774 q 631 738 600 738 m 564 500 q 484 352 529 422 q 382 207 439 282 q 540 156 464 186 q 667 86 617 126 q 564 500 608 210 z "},"Ç":{"ha":808,"x_min":17,"x_max":792,"o":"m 399 -64 q 123 60 229 -44 q 17 358 17 165 q 135 709 17 581 q 419 838 254 838 l 696 838 q 741 732 704 799 q 788 633 778 665 q 631 757 708 694 q 425 808 535 808 q 210 713 268 808 q 153 465 153 617 q 240 130 153 293 q 490 -33 326 -33 q 686 16 625 -33 q 792 149 747 65 q 723 -10 792 47 q 469 -68 654 -68 l 453 -68 l 447 -125 l 485 -122 q 543 -147 518 -122 q 568 -212 568 -172 q 534 -301 568 -271 q 451 -331 500 -331 q 368 -322 413 -331 q 299 -292 324 -314 l 326 -292 q 440 -276 396 -292 q 485 -208 485 -260 q 465 -170 485 -182 q 424 -158 446 -158 l 389 -158 l 399 -64 z "},"É":{"ha":943,"x_min":0,"x_max":919,"o":"m 419 710 l 438 726 l 438 710 l 835 710 q 872 604 835 668 q 919 500 908 540 q 818 600 868 550 q 607 675 724 675 l 436 675 l 436 328 q 544 437 489 393 q 678 481 600 481 q 744 456 719 481 q 768 393 768 432 q 744 314 768 357 q 749 361 749 342 q 733 421 749 407 q 686 435 717 435 q 531 336 626 435 q 436 92 436 238 q 465 -19 436 0 q 593 -37 494 -37 q 918 161 818 -37 q 885 48 913 110 q 835 -65 857 -14 l 188 -65 q 265 -17 233 -42 q 297 54 297 7 l 297 444 q 313 544 297 508 q 381 675 329 581 q 127 623 199 675 q 56 444 56 571 q 97 256 56 319 q 232 139 139 192 q 51 217 101 139 q 0 415 0 296 q 95 634 0 558 q 419 710 190 710 m 714 922 q 744 904 744 922 q 649 812 744 865 q 532 758 553 758 q 589 840 560 799 q 714 922 663 922 z "},"Ñ":{"ha":914,"x_min":0,"x_max":1281,"o":"m 344 719 q 504 673 465 719 q 610 532 543 626 l 814 107 l 814 589 q 782 665 814 639 q 704 710 750 692 l 985 710 q 873 663 901 692 q 844 589 844 633 l 844 47 q 965 -169 910 -97 q 1142 -242 1021 -242 q 1208 -225 1171 -242 q 1281 -178 1246 -208 q 1212 -244 1251 -219 q 1096 -269 1172 -269 q 828 -126 932 -269 q 598 288 725 17 q 399 622 471 558 l 399 56 q 431 -17 399 13 q 510 -65 463 -46 l 232 -65 q 341 -19 314 -47 q 368 56 368 10 l 368 647 q 320 681 344 669 q 260 692 296 692 q 104 630 153 692 q 56 472 56 568 q 104 292 56 354 q 247 185 153 229 q 60 258 121 185 q 0 438 0 331 q 89 654 0 589 q 344 719 178 719 m 526 904 q 617 874 561 904 q 708 843 672 843 q 778 862 751 843 q 836 919 804 881 q 784 808 824 853 q 686 763 744 763 q 596 793 657 763 q 503 824 535 824 q 435 807 457 824 q 375 749 413 790 q 428 858 386 813 q 526 904 471 904 z "},"Ö":{"ha":981,"x_min":36,"x_max":954,"o":"m 500 742 q 839 631 724 742 q 954 308 954 519 q 833 -57 954 68 q 492 -182 713 -182 q 152 -69 268 -182 q 36 244 36 44 q 72 452 36 339 q 211 653 108 565 q 500 742 314 742 m 397 889 q 427 872 415 889 q 439 833 439 854 q 423 799 439 807 q 383 792 407 792 q 353 809 365 792 q 342 847 342 826 q 397 889 342 889 m 582 889 q 613 872 601 889 q 625 833 625 856 q 609 799 625 807 q 569 792 593 792 q 540 810 551 792 q 528 847 528 829 q 544 878 528 867 q 582 889 560 889 m 175 375 q 265 -3 175 138 q 547 -144 354 -144 q 760 -59 700 -144 q 819 181 819 26 q 719 585 819 464 q 457 706 618 706 q 252 631 329 706 q 175 375 175 557 z "},"Ü":{"ha":1025,"x_min":0,"x_max":1071,"o":"m 392 710 l 651 710 q 461 453 521 572 q 401 207 401 335 q 459 -8 401 38 q 625 -53 517 -53 q 754 -8 694 -53 q 814 96 814 36 l 814 644 q 799 688 814 675 q 758 710 785 700 l 972 710 q 1028 693 1001 710 q 1071 650 1056 676 q 1038 671 1054 660 q 1000 682 1017 682 q 969 669 986 682 q 953 625 953 657 l 953 58 q 980 -10 953 24 q 1061 -65 1007 -44 l 814 -65 l 814 -8 q 699 -122 771 -69 q 531 -175 626 -175 q 317 -85 378 -175 q 256 161 256 6 q 303 387 256 285 q 413 557 350 489 q 540 676 475 625 l 344 676 q 134 608 203 676 q 65 431 65 539 q 96 294 65 357 q 192 197 126 231 q 52 271 104 207 q 0 421 0 335 q 92 617 0 524 q 392 710 183 710 m 624 875 q 654 858 643 875 q 665 819 665 842 q 649 786 665 793 q 610 779 633 779 q 580 797 592 779 q 568 835 568 814 q 583 863 568 851 q 624 875 597 875 m 808 875 q 840 859 828 875 q 851 819 851 843 q 835 786 851 793 q 796 779 819 779 q 768 793 782 779 q 754 835 754 807 q 771 864 754 853 q 808 875 788 875 z "},"á":{"ha":642,"x_min":36,"x_max":636,"o":"m 532 594 l 532 81 q 550 63 533 63 q 580 72 563 63 q 636 103 597 81 q 576 29 618 65 q 494 -7 533 -7 q 437 24 472 -7 q 401 106 401 54 l 401 181 q 258 44 317 96 q 157 -7 200 -7 q 73 49 110 -7 q 36 197 36 104 q 140 490 36 386 q 411 594 244 594 l 532 594 m 501 872 q 531 850 531 872 q 435 733 531 800 q 319 667 340 667 q 376 769 347 718 q 501 872 450 872 m 169 303 q 192 203 169 235 q 253 171 214 171 q 324 191 286 171 q 401 246 363 211 l 401 556 q 233 478 297 556 q 169 303 169 401 z "},"à":{"ha":642,"x_min":36,"x_max":636,"o":"m 532 594 l 532 81 q 550 63 533 63 q 580 72 563 63 q 636 103 597 81 q 576 29 618 65 q 494 -7 533 -7 q 437 24 472 -7 q 401 106 401 54 l 401 181 q 258 44 317 96 q 157 -7 200 -7 q 73 49 110 -7 q 36 197 36 104 q 140 490 36 386 q 411 594 244 594 l 532 594 m 436 647 q 320 714 415 647 q 225 831 225 781 q 254 853 225 853 q 378 750 303 853 q 436 647 407 699 m 169 303 q 192 203 169 235 q 253 171 214 171 q 324 191 286 171 q 401 246 363 211 l 401 556 q 233 478 297 556 q 169 303 169 401 z "},"â":{"ha":642,"x_min":36,"x_max":636,"o":"m 532 594 l 532 81 q 550 63 533 63 q 580 72 563 63 q 636 103 597 81 q 576 29 618 65 q 494 -7 533 -7 q 437 24 472 -7 q 401 106 401 54 l 401 181 q 258 44 317 96 q 157 -7 200 -7 q 73 49 110 -7 q 36 197 36 104 q 140 490 36 386 q 411 594 244 594 l 532 594 m 550 697 q 438 757 497 728 q 344 786 379 786 q 247 757 310 786 q 126 697 185 728 q 228 834 165 792 q 349 900 292 876 q 466 836 404 878 q 550 697 528 794 m 169 303 q 192 203 169 235 q 253 171 214 171 q 324 191 286 171 q 401 246 363 211 l 401 556 q 233 478 297 556 q 169 303 169 401 z "},"ä":{"ha":642,"x_min":36,"x_max":636,"o":"m 532 594 l 532 81 q 550 63 533 63 q 580 72 563 63 q 636 103 597 81 q 576 29 618 65 q 494 -7 533 -7 q 437 24 472 -7 q 401 106 401 54 l 401 181 q 258 44 317 96 q 157 -7 200 -7 q 73 49 110 -7 q 36 197 36 104 q 140 490 36 386 q 411 594 244 594 l 532 594 m 254 796 q 285 779 274 796 q 297 740 297 763 q 281 706 297 714 q 242 699 265 699 q 210 716 222 699 q 199 754 199 733 q 213 784 199 772 q 254 796 228 796 m 440 796 q 470 778 458 796 q 482 740 482 761 q 466 706 482 714 q 426 699 450 699 q 400 713 414 699 q 386 754 386 728 q 402 785 386 774 q 440 796 418 796 m 169 303 q 192 203 169 235 q 253 171 214 171 q 324 191 286 171 q 401 246 363 211 l 401 556 q 233 478 297 556 q 169 303 169 401 z "},"ã":{"ha":642,"x_min":36,"x_max":636,"o":"m 532 594 l 532 81 q 550 63 533 63 q 580 72 563 63 q 636 103 597 81 q 576 29 618 65 q 494 -7 533 -7 q 437 24 472 -7 q 401 106 401 54 l 401 181 q 258 44 317 96 q 157 -7 200 -7 q 73 49 110 -7 q 36 197 36 104 q 140 490 36 386 q 411 594 244 594 l 532 594 m 238 833 q 328 803 272 833 q 419 772 383 772 q 497 794 474 772 q 547 847 521 815 q 495 737 535 782 q 397 692 456 692 q 307 722 368 692 q 214 753 246 753 q 146 736 168 753 q 86 678 124 719 q 140 788 97 742 q 238 833 182 833 m 169 303 q 192 203 169 235 q 253 171 214 171 q 324 191 286 171 q 401 246 363 211 l 401 556 q 233 478 297 556 q 169 303 169 401 z "},"å":{"ha":642,"x_min":36,"x_max":636,"o":"m 532 594 l 532 81 q 550 63 533 63 q 580 72 563 63 q 636 103 597 81 q 576 29 618 65 q 494 -7 533 -7 q 437 24 472 -7 q 401 106 401 54 l 401 181 q 258 44 317 96 q 157 -7 200 -7 q 73 49 110 -7 q 36 197 36 104 q 140 490 36 386 q 411 594 244 594 l 532 594 m 264 776 q 301 868 264 831 q 393 906 339 906 q 484 869 446 906 q 522 778 522 832 q 484 688 522 724 q 390 653 446 653 q 302 690 340 653 q 264 776 264 726 m 169 303 q 192 203 169 235 q 253 171 214 171 q 324 191 286 171 q 401 246 363 211 l 401 556 q 233 478 297 556 q 169 303 169 401 m 461 781 q 440 825 461 807 q 392 843 419 843 q 346 825 364 843 q 328 781 328 807 q 347 735 328 753 q 394 717 365 717 q 442 735 422 717 q 461 781 461 753 z "},"ç":{"ha":547,"x_min":25,"x_max":526,"o":"m 197 -3 q 56 78 88 8 q 25 244 25 149 q 117 501 25 404 q 353 599 208 599 q 467 563 407 599 q 526 476 526 528 q 490 425 526 463 q 428 372 454 388 q 364 474 415 435 q 258 513 313 513 q 174 456 207 513 q 142 325 142 400 q 203 137 142 192 q 344 82 265 82 q 417 101 378 82 q 497 147 456 119 q 391 29 443 64 q 251 -6 339 -6 l 247 -58 l 285 -56 q 343 -81 318 -56 q 368 -146 368 -106 q 334 -234 368 -204 q 251 -264 300 -264 q 168 -256 213 -264 q 99 -225 124 -247 l 126 -225 q 240 -209 196 -225 q 285 -142 285 -193 q 265 -103 285 -115 q 224 -92 246 -92 l 189 -92 l 197 -3 z "},"é":{"ha":575,"x_min":42,"x_max":543,"o":"m 356 600 q 445 581 410 600 q 542 500 481 561 l 204 163 q 273 103 232 117 q 365 90 314 90 q 462 114 417 90 q 543 164 507 138 q 421 37 488 79 q 268 -6 354 -6 q 93 74 144 -6 q 42 244 42 153 q 132 503 42 406 q 356 600 222 600 m 439 872 q 469 850 469 872 q 374 733 469 800 q 257 667 279 667 q 314 769 285 718 q 439 872 388 872 m 192 194 q 289 289 240 242 q 363 408 363 368 q 339 484 363 457 q 276 511 315 511 q 200 453 228 511 q 172 317 172 396 q 176 253 172 283 q 192 194 181 224 z "},"è":{"ha":575,"x_min":42,"x_max":543,"o":"m 356 600 q 445 581 410 600 q 542 500 481 561 l 204 163 q 273 103 232 117 q 365 90 314 90 q 462 114 417 90 q 543 164 507 138 q 421 37 488 79 q 268 -6 354 -6 q 93 74 144 -6 q 42 244 42 153 q 132 503 42 406 q 356 600 222 600 m 388 647 q 271 715 367 647 q 175 831 175 782 q 206 853 175 853 q 329 750 254 853 q 388 647 358 699 m 192 194 q 289 289 240 242 q 363 408 363 368 q 339 484 363 457 q 276 511 315 511 q 200 453 228 511 q 172 317 172 396 q 176 253 172 283 q 192 194 181 224 z "},"ê":{"ha":575,"x_min":42,"x_max":543,"o":"m 356 600 q 445 581 410 600 q 542 500 481 561 l 204 163 q 273 103 232 117 q 365 90 314 90 q 462 114 417 90 q 543 164 507 138 q 421 37 488 79 q 268 -6 354 -6 q 93 74 144 -6 q 42 244 42 153 q 132 503 42 406 q 356 600 222 600 m 524 697 q 412 757 471 728 q 318 786 353 786 q 221 757 283 786 q 100 697 158 728 q 202 834 139 792 q 322 900 265 876 q 440 836 378 878 q 524 697 501 794 m 192 194 q 289 289 240 242 q 363 408 363 368 q 339 484 363 457 q 276 511 315 511 q 200 453 228 511 q 172 317 172 396 q 176 253 172 283 q 192 194 181 224 z "},"ë":{"ha":575,"x_min":42,"x_max":543,"o":"m 356 600 q 445 581 410 600 q 542 500 481 561 l 204 163 q 273 103 232 117 q 365 90 314 90 q 462 114 417 90 q 543 164 507 138 q 421 37 488 79 q 268 -6 354 -6 q 93 74 144 -6 q 42 244 42 153 q 132 503 42 406 q 356 600 222 600 m 242 796 q 272 778 260 796 q 283 740 283 761 q 267 706 283 714 q 228 699 251 699 q 198 716 210 699 q 186 754 186 733 q 242 796 186 796 m 426 796 q 458 779 446 796 q 469 740 469 763 q 453 706 469 714 q 414 699 438 699 q 383 717 394 699 q 372 754 372 735 q 388 785 372 774 q 426 796 404 796 m 192 194 q 289 289 240 242 q 363 408 363 368 q 339 484 363 457 q 276 511 315 511 q 200 453 228 511 q 172 317 172 396 q 176 253 172 283 q 192 194 181 224 z "},"í":{"ha":363,"x_min":18,"x_max":344,"o":"m 169 601 q 230 568 213 601 q 247 489 247 535 l 247 99 q 276 60 253 60 q 315 78 293 60 q 344 101 338 96 q 277 18 311 44 q 200 -8 243 -8 q 142 22 164 -8 q 119 94 119 53 l 119 504 q 100 531 119 531 q 18 483 74 531 q 75 556 25 510 q 169 601 125 601 m 283 872 q 314 850 314 872 q 219 733 314 800 q 101 667 124 667 q 158 769 129 718 q 283 872 232 872 z "},"ì":{"ha":363,"x_min":18,"x_max":344,"o":"m 169 601 q 230 568 213 601 q 247 489 247 535 l 247 99 q 276 60 253 60 q 315 78 293 60 q 344 101 338 96 q 277 18 311 44 q 200 -8 243 -8 q 142 22 164 -8 q 119 94 119 53 l 119 504 q 100 531 119 531 q 18 483 74 531 q 75 556 25 510 q 169 601 125 601 m 236 647 q 120 714 215 647 q 25 831 25 781 q 54 853 25 853 q 178 750 103 853 q 236 647 207 699 z "},"î":{"ha":363,"x_min":-29,"x_max":394,"o":"m 169 601 q 230 568 213 601 q 247 489 247 535 l 247 99 q 276 60 253 60 q 315 78 293 60 q 344 101 338 96 q 277 18 311 44 q 200 -8 243 -8 q 142 22 164 -8 q 119 94 119 53 l 119 504 q 100 531 119 531 q 18 483 74 531 q 75 556 25 510 q 169 601 125 601 m 394 697 q 283 757 342 728 q 189 786 224 786 q 92 757 154 786 q -29 697 29 728 q 73 834 10 792 q 193 900 136 876 q 310 836 249 878 q 394 697 372 794 z "},"ï":{"ha":363,"x_min":18,"x_max":344,"o":"m 169 601 q 230 568 213 601 q 247 489 247 535 l 247 99 q 276 60 253 60 q 315 78 293 60 q 344 101 338 96 q 277 18 311 44 q 200 -8 243 -8 q 142 22 164 -8 q 119 94 119 53 l 119 504 q 100 531 119 531 q 18 483 74 531 q 75 556 25 510 q 169 601 125 601 m 90 796 q 120 778 108 796 q 132 740 132 761 q 116 706 132 714 q 76 699 100 699 q 47 716 58 699 q 35 754 35 733 q 90 796 35 796 m 275 796 q 306 778 294 796 q 318 740 318 761 q 302 706 318 714 q 263 699 286 699 q 235 713 249 699 q 221 754 221 726 q 237 785 221 774 q 275 796 253 796 z "},"ñ":{"ha":619,"x_min":-37,"x_max":610,"o":"m 513 88 q 533 57 513 57 q 610 103 561 57 q 540 21 582 50 q 464 -8 497 -8 q 403 15 426 -8 q 381 85 381 38 l 382 397 q 375 448 382 429 q 336 467 368 467 q 244 394 301 467 q 188 308 188 321 l 188 72 q 140 17 181 43 q 58 -8 99 -8 l 58 467 q 42 489 58 489 q -37 451 21 489 q 59 556 15 518 q 128 594 103 594 q 177 552 167 594 q 188 421 188 510 l 188 369 q 302 524 242 454 q 429 594 363 594 q 497 560 481 594 q 514 456 514 525 q 513 415 514 435 q 513 374 513 394 q 512 288 513 333 q 511 179 511 243 q 511 116 511 143 q 513 88 511 89 m 238 833 q 328 803 272 833 q 419 772 383 772 q 497 794 474 772 q 547 847 521 815 q 495 737 535 782 q 397 692 456 692 q 307 722 368 692 q 214 753 246 753 q 146 736 168 753 q 86 678 124 719 q 140 788 97 742 q 238 833 182 833 z "},"ó":{"ha":625,"x_min":36,"x_max":582,"o":"m 339 601 q 517 519 453 601 q 582 317 582 438 q 488 90 582 189 q 276 -8 393 -8 q 101 74 167 -8 q 36 282 36 157 q 128 504 36 407 q 339 601 219 601 m 417 872 q 447 850 447 872 q 352 733 447 800 q 235 667 257 667 q 292 769 263 718 q 417 872 365 872 m 158 364 q 188 154 158 250 q 322 58 218 58 q 419 108 382 58 q 457 236 457 158 q 419 442 457 349 q 292 536 382 536 q 194 488 231 536 q 158 364 158 439 z "},"ò":{"ha":625,"x_min":36,"x_max":582,"o":"m 339 601 q 517 519 453 601 q 582 317 582 438 q 488 90 582 189 q 276 -8 393 -8 q 101 74 167 -8 q 36 282 36 157 q 128 504 36 407 q 339 601 219 601 m 365 647 q 249 715 344 647 q 153 831 153 782 q 183 853 153 853 q 307 750 232 853 q 365 647 336 699 m 158 364 q 188 154 158 250 q 322 58 218 58 q 419 108 382 58 q 457 236 457 158 q 419 442 457 349 q 292 536 382 536 q 194 488 231 536 q 158 364 158 439 z "},"ô":{"ha":625,"x_min":36,"x_max":582,"o":"m 339 601 q 517 519 453 601 q 582 317 582 438 q 488 90 582 189 q 276 -8 393 -8 q 101 74 167 -8 q 36 282 36 157 q 128 504 36 407 q 339 601 219 601 m 510 697 q 398 757 457 728 q 304 786 339 786 q 207 757 269 786 q 86 697 144 728 q 188 834 125 792 q 308 900 251 876 q 426 836 365 878 q 510 697 488 794 m 158 364 q 188 154 158 250 q 322 58 218 58 q 419 108 382 58 q 457 236 457 158 q 419 442 457 349 q 292 536 382 536 q 194 488 231 536 q 158 364 158 439 z "},"ö":{"ha":625,"x_min":36,"x_max":582,"o":"m 339 601 q 517 519 453 601 q 582 317 582 438 q 488 90 582 189 q 276 -8 393 -8 q 101 74 167 -8 q 36 282 36 157 q 128 504 36 407 q 339 601 219 601 m 236 796 q 267 778 256 796 q 279 740 279 761 q 263 706 279 714 q 224 699 247 699 q 192 715 204 699 q 181 754 181 732 q 195 784 181 772 q 236 796 210 796 m 422 796 q 452 778 440 796 q 464 740 464 761 q 449 706 464 714 q 408 699 433 699 q 382 713 396 699 q 368 754 368 728 q 384 785 368 774 q 422 796 400 796 m 158 364 q 188 154 158 250 q 322 58 218 58 q 419 108 382 58 q 457 236 457 158 q 419 442 457 349 q 292 536 382 536 q 194 488 231 536 q 158 364 158 439 z "},"õ":{"ha":625,"x_min":36,"x_max":582,"o":"m 339 601 q 517 519 453 601 q 582 317 582 438 q 488 90 582 189 q 276 -8 393 -8 q 101 74 167 -8 q 36 282 36 157 q 128 504 36 407 q 339 601 219 601 m 238 833 q 328 803 272 833 q 419 772 383 772 q 497 794 474 772 q 547 847 521 815 q 495 737 535 782 q 397 692 456 692 q 307 722 368 692 q 214 753 246 753 q 146 736 168 753 q 86 678 124 719 q 140 788 97 742 q 238 833 182 833 m 158 364 q 188 154 158 250 q 322 58 218 58 q 419 108 382 58 q 457 236 457 158 q 419 442 457 349 q 292 536 382 536 q 194 488 231 536 q 158 364 158 439 z "},"ú":{"ha":681,"x_min":-18,"x_max":669,"o":"m 131 603 q 188 568 176 603 q 201 497 199 533 l 201 236 l 201 199 q 212 133 201 156 q 260 110 222 110 q 346 163 294 110 q 397 258 397 217 l 397 497 q 434 572 397 540 q 525 603 471 603 l 525 108 q 535 97 529 103 q 557 92 542 92 q 603 106 576 92 q 669 158 631 121 q 580 51 639 110 q 468 -8 521 -8 q 413 15 429 -8 q 397 82 397 38 l 397 143 q 278 33 332 74 q 164 -8 224 -8 q 94 39 114 -8 q 74 154 74 86 l 74 476 q 68 515 74 503 q 44 528 63 528 q -18 503 22 528 q 51 578 14 554 q 131 603 89 603 m 447 872 q 478 850 478 872 q 383 733 478 800 q 265 667 288 667 q 322 769 293 718 q 447 872 396 872 z "},"ù":{"ha":681,"x_min":-18,"x_max":669,"o":"m 131 603 q 188 568 176 603 q 201 497 199 533 l 201 236 l 201 199 q 212 133 201 156 q 260 110 222 110 q 346 163 294 110 q 397 258 397 217 l 397 497 q 434 572 397 540 q 525 603 471 603 l 525 108 q 535 97 529 103 q 557 92 542 92 q 603 106 576 92 q 669 158 631 121 q 580 51 639 110 q 468 -8 521 -8 q 413 15 429 -8 q 397 82 397 38 l 397 143 q 278 33 332 74 q 164 -8 224 -8 q 94 39 114 -8 q 74 154 74 86 l 74 476 q 68 515 74 503 q 44 528 63 528 q -18 503 22 528 q 51 578 14 554 q 131 603 89 603 m 335 647 q 218 715 314 647 q 122 831 122 782 q 153 853 122 853 q 276 750 201 853 q 335 647 306 699 z "},"û":{"ha":681,"x_min":-18,"x_max":669,"o":"m 131 603 q 188 568 176 603 q 201 497 199 533 l 201 236 l 201 199 q 212 133 201 156 q 260 110 222 110 q 346 163 294 110 q 397 258 397 217 l 397 497 q 434 572 397 540 q 525 603 471 603 l 525 108 q 535 97 529 103 q 557 92 542 92 q 603 106 576 92 q 669 158 631 121 q 580 51 639 110 q 468 -8 521 -8 q 413 15 429 -8 q 397 82 397 38 l 397 143 q 278 33 332 74 q 164 -8 224 -8 q 94 39 114 -8 q 74 154 74 86 l 74 476 q 68 515 74 503 q 44 528 63 528 q -18 503 22 528 q 51 578 14 554 q 131 603 89 603 m 488 697 q 376 757 435 728 q 282 786 317 786 q 185 757 247 786 q 64 697 122 728 q 166 834 103 792 q 286 900 229 876 q 404 836 343 878 q 488 697 465 794 z "},"ü":{"ha":681,"x_min":-18,"x_max":669,"o":"m 131 603 q 188 568 176 603 q 201 497 199 533 l 201 236 l 201 199 q 212 133 201 156 q 260 110 222 110 q 346 163 294 110 q 397 258 397 217 l 397 497 q 434 572 397 540 q 525 603 471 603 l 525 108 q 535 97 529 103 q 557 92 542 92 q 603 106 576 92 q 669 158 631 121 q 580 51 639 110 q 468 -8 521 -8 q 413 15 429 -8 q 397 82 397 38 l 397 143 q 278 33 332 74 q 164 -8 224 -8 q 94 39 114 -8 q 74 154 74 86 l 74 476 q 68 515 74 503 q 44 528 63 528 q -18 503 22 528 q 51 578 14 554 q 131 603 89 603 m 228 792 q 258 774 246 792 q 269 736 269 757 q 254 702 269 710 q 214 694 239 694 q 184 712 196 694 q 172 750 172 729 q 187 778 172 765 q 228 792 201 792 m 414 792 q 444 774 432 792 q 456 736 456 757 q 440 702 456 710 q 400 694 424 694 q 372 708 386 694 q 358 750 358 722 q 374 780 358 768 q 414 792 390 792 z "},"†":{"ha":561,"x_min":40,"x_max":500,"o":"m 299 -261 l 240 -261 q 235 124 240 -11 q 189 379 231 260 q 222 435 211 411 q 240 492 232 458 q 158 469 200 481 q 101 458 115 458 q 56 479 72 458 q 40 531 40 500 q 57 582 40 560 q 104 604 74 604 q 158 592 117 604 q 240 568 200 581 q 213 744 226 656 q 199 844 199 833 q 218 903 199 881 q 265 925 238 925 q 319 903 299 925 q 340 844 340 881 q 326 744 340 833 q 299 568 313 656 q 379 592 338 581 q 435 604 421 604 q 483 583 465 604 q 500 531 500 561 q 484 479 500 500 q 438 458 468 458 q 383 469 425 458 q 299 492 340 481 q 315 440 306 463 q 350 379 325 418 q 308 156 317 283 q 299 -261 299 28 z "},"°":{"ha":547,"x_min":142,"x_max":414,"o":"m 275 922 q 375 883 336 922 q 414 788 414 844 q 374 688 414 726 q 276 650 335 650 q 178 688 215 650 q 142 786 142 726 q 179 883 142 844 q 275 922 217 922 m 203 786 q 226 736 203 758 q 278 714 250 714 q 330 734 307 714 q 353 786 353 754 q 329 839 353 815 q 276 863 306 863 q 226 840 249 863 q 203 786 203 817 z "},"¢":{"ha":593,"x_min":61,"x_max":536,"o":"m 281 629 l 281 714 l 339 714 l 339 629 q 458 579 394 629 q 532 461 521 529 q 339 536 467 536 l 339 158 q 450 175 407 158 q 536 233 493 192 q 456 114 515 156 q 340 72 396 72 l 340 -17 l 282 -17 l 282 72 q 128 141 196 72 q 61 351 61 210 q 134 555 61 481 q 281 629 207 629 m 158 350 q 192 211 158 264 q 281 158 225 158 l 281 536 q 189 489 219 536 q 158 350 158 442 z "},"£":{"ha":675,"x_min":10,"x_max":658,"o":"m 481 431 l 329 431 q 361 335 346 394 q 376 229 376 276 q 372 185 376 206 q 454 131 418 150 q 517 111 490 111 q 547 124 536 111 q 558 165 558 136 q 550 194 558 185 q 518 204 542 204 q 481 199 501 204 l 458 269 q 542 293 501 293 q 625 255 592 293 q 658 142 658 217 q 617 26 658 72 q 519 -21 576 -21 q 429 13 482 -21 q 329 83 376 47 q 249 6 299 33 q 147 -21 200 -21 q 52 16 94 -21 q 10 119 10 53 q 48 215 10 185 q 144 246 86 246 q 228 231 189 246 q 174 431 208 339 l 43 431 l 64 508 l 149 508 q 142 556 146 525 q 138 604 138 588 q 217 801 138 729 q 401 874 297 874 q 552 822 485 874 q 619 671 619 769 q 599 590 619 622 q 540 558 579 558 q 489 579 504 558 q 474 632 474 600 q 478 674 474 654 q 486 708 482 694 q 458 758 486 742 q 401 775 431 775 q 315 732 346 775 q 285 619 285 689 q 290 565 285 592 q 304 508 294 539 l 503 508 l 481 431 m 103 119 q 131 82 103 82 q 182 102 156 82 q 218 135 208 122 q 183 153 203 146 q 143 161 163 161 q 114 151 125 161 q 103 119 103 142 z "},"§":{"ha":614,"x_min":36,"x_max":560,"o":"m 58 335 q 76 427 58 385 q 128 494 94 469 q 82 556 99 517 q 65 638 65 594 q 140 813 65 751 q 310 874 214 874 q 462 826 383 874 q 540 694 540 778 q 519 638 540 661 q 469 615 497 615 q 394 690 417 615 q 308 764 372 764 q 235 740 257 764 q 214 681 214 717 q 327 594 214 632 q 499 517 440 556 q 558 361 558 478 q 504 219 558 274 q 560 75 560 164 q 475 -125 560 -58 q 278 -192 390 -192 q 99 -132 163 -192 q 36 -4 36 -72 q 58 60 36 36 q 114 83 81 83 q 194 3 174 83 q 294 -78 215 -78 q 386 -49 354 -78 q 418 29 418 -19 q 285 131 418 90 q 106 197 153 172 q 58 335 58 222 m 228 443 q 207 417 215 432 q 199 385 199 401 q 269 314 199 339 q 414 265 339 289 q 422 292 418 279 q 425 314 425 304 q 356 395 425 369 q 228 443 286 421 z "},"•":{"ha":567,"x_min":51,"x_max":504,"o":"m 285 594 q 444 527 383 594 q 504 363 504 460 q 439 203 504 264 q 272 142 374 142 q 126 194 200 142 q 51 374 51 247 q 117 533 51 471 q 285 594 183 594 z "},"¶":{"ha":907,"x_min":29,"x_max":856,"o":"m 244 -307 q 320 -261 301 -290 q 339 -197 339 -232 l 339 -176 l 339 218 q 233 228 286 218 q 134 267 181 239 q 58 358 88 296 q 29 500 29 421 q 56 638 29 574 q 122 729 83 701 q 200 769 160 757 q 317 781 240 781 l 344 781 l 856 781 q 778 740 794 764 q 761 643 761 717 l 761 -171 q 774 -271 761 -250 q 856 -307 788 -292 l 244 -307 m 518 696 l 518 -222 q 528 -247 518 -239 q 550 -256 538 -256 q 581 -222 581 -256 l 581 696 q 571 721 581 713 q 549 729 561 729 q 518 696 518 729 m 226 319 q 320 351 290 319 q 350 503 350 383 q 326 642 350 617 q 240 667 303 667 q 148 616 189 667 q 107 503 107 565 q 142 377 107 435 q 226 319 176 319 z "},"ß":{"ha":778,"x_min":-171,"x_max":750,"o":"m 499 711 q 401 776 453 744 q 308 808 349 808 q 274 792 290 808 q 251 760 258 775 q 243 731 243 744 l 243 10 q 151 -258 243 -86 q 35 -454 60 -429 q -15 -483 10 -479 q -74 -487 -40 -487 q -137 -485 -108 -487 q -171 -481 -165 -482 q -120 -400 -162 -462 q -69 -337 -78 -337 q -37 -339 -54 -337 q -10 -340 -19 -340 q 94 -315 68 -340 q 121 -228 121 -290 l 121 468 q 61 488 96 488 q 8 464 35 488 l 94 569 l 121 569 q 226 822 121 718 q 388 925 331 925 q 537 858 429 925 q 654 776 644 792 q 517 674 626 781 q 408 542 408 567 q 525 449 408 499 q 696 362 642 399 q 750 231 750 325 q 674 55 750 115 q 507 -6 599 -6 q 372 33 400 -6 q 343 221 343 71 q 424 85 375 139 q 564 31 474 31 q 641 79 613 31 q 669 183 669 128 q 591 278 669 238 q 436 360 513 319 q 354 507 354 418 q 424 640 354 567 q 499 711 494 713 z "},"®":{"ha":956,"x_min":33,"x_max":969,"o":"m 753 36 q 801 3 778 14 q 849 -8 824 -8 q 910 12 875 -8 q 969 61 946 32 q 909 -10 944 17 q 813 -36 874 -36 q 704 0 756 -36 q 472 -65 597 -65 q 162 63 290 -65 q 33 374 33 192 q 162 684 33 556 q 472 813 290 813 q 783 684 654 813 q 911 374 911 556 q 870 185 911 272 q 753 36 829 99 m 665 35 q 574 170 614 88 q 492 363 533 253 q 604 385 567 363 q 642 478 642 407 q 606 590 642 556 q 469 625 569 625 l 469 236 q 481 191 469 210 q 519 158 492 172 l 331 158 q 400 242 400 176 l 400 468 q 411 553 403 508 q 444 625 419 597 q 283 589 324 625 q 242 492 242 553 q 269 383 242 431 q 358 300 296 335 q 251 348 289 300 q 214 468 214 396 q 270 601 214 557 q 461 646 326 646 l 469 658 l 469 647 q 656 616 603 647 q 710 501 710 585 q 667 398 710 436 q 558 353 625 360 q 624 215 586 290 q 719 71 661 139 q 826 204 788 125 q 864 374 864 283 q 750 649 864 533 q 475 764 636 764 q 199 650 313 764 q 85 374 85 536 q 199 97 85 211 q 475 -17 313 -17 q 573 -3 524 -17 q 665 35 622 11 z "},"©":{"ha":933,"x_min":33,"x_max":911,"o":"m 33 274 q 162 584 33 456 q 472 713 290 713 q 783 584 654 713 q 911 274 911 456 q 783 -37 911 90 q 472 -165 656 -165 q 162 -37 290 -165 q 33 274 33 92 m 475 -117 q 750 -3 636 -117 q 864 274 864 111 q 750 549 864 433 q 475 664 636 664 q 199 550 313 664 q 85 274 85 436 q 199 -3 85 111 q 475 -117 313 -117 m 467 561 l 638 561 q 667 494 643 536 q 696 433 690 451 q 597 511 646 472 q 469 543 536 543 q 335 484 372 543 q 299 329 299 425 q 353 121 299 224 q 510 18 408 18 q 633 51 593 18 q 697 132 674 83 q 655 32 697 68 q 497 -4 613 -4 q 294 63 375 -4 q 214 263 214 129 q 288 481 214 400 q 467 561 363 561 z "},"™":{"ha":978,"x_min":64,"x_max":900,"o":"m 900 876 l 882 876 q 858 867 860 876 q 856 836 856 857 l 856 549 q 861 503 856 511 q 900 493 867 496 l 900 458 l 735 458 l 735 493 q 773 502 765 493 q 781 547 781 511 l 781 839 l 656 458 l 644 458 l 514 839 l 514 528 q 525 499 514 506 q 557 493 536 493 l 557 458 l 435 458 l 435 493 l 447 493 q 462 494 453 493 q 474 504 471 494 q 479 530 478 514 q 481 553 481 546 l 481 836 q 478 870 481 864 q 456 876 475 876 l 442 876 l 442 908 l 574 908 l 672 622 l 767 908 l 900 908 l 900 876 m 407 790 l 375 790 q 360 851 375 835 q 308 867 346 867 l 271 867 q 272 610 271 714 q 279 499 272 506 q 318 493 289 493 l 326 493 l 326 458 l 139 458 l 139 493 l 147 493 q 186 499 175 493 q 194 561 193 504 q 196 867 196 618 l 161 867 q 110 851 125 867 q 96 790 96 835 l 64 790 l 64 908 l 407 908 l 407 790 z "},"´":{"ha":281,"x_min":47,"x_max":260,"o":"m 231 872 q 260 850 260 872 q 165 733 260 800 q 47 667 69 667 q 106 769 76 718 q 231 872 181 872 z "},"¨":{"ha":386,"x_min":53,"x_max":336,"o":"m 108 796 q 138 778 126 796 q 150 740 150 761 q 134 706 150 714 q 94 699 118 699 q 65 716 76 699 q 53 754 53 733 q 108 796 53 796 m 293 796 q 324 779 313 796 q 336 740 336 763 q 320 706 336 714 q 281 699 304 699 q 250 717 261 699 q 239 754 239 735 q 255 785 239 774 q 293 796 271 796 z "},"≠":{"ha":763,"x_min":63,"x_max":700,"o":"m 574 467 l 700 467 l 700 378 l 493 378 l 392 278 l 700 278 l 700 189 l 310 189 l 146 25 l 86 86 l 189 189 l 63 189 l 63 278 l 271 278 l 372 378 l 63 378 l 63 467 l 453 467 l 617 631 l 678 569 l 574 467 z "},"Æ":{"ha":1567,"x_min":6,"x_max":1551,"o":"m 617 -64 q 722 -30 672 -58 q 772 46 772 -1 q 676 158 772 92 q 481 257 579 225 q 368 122 439 206 q 203 -49 297 39 q 53 -136 108 -136 q 16 -126 26 -136 q 6 -89 6 -115 q 139 23 6 -64 q 435 271 272 110 q 342 283 382 283 q 210 253 274 283 q 135 210 151 218 q 263 290 188 260 q 408 319 338 319 q 461 314 439 319 q 601 517 543 417 q 702 722 658 618 q 785 931 746 825 l 785 904 l 1444 904 q 1490 771 1444 851 q 1551 642 1536 690 q 1372 803 1461 722 q 1158 861 1275 861 l 1008 863 q 947 800 947 863 l 947 426 q 1083 565 1015 511 q 1247 618 1150 618 q 1331 588 1301 618 q 1361 507 1361 558 q 1331 408 1361 460 q 1336 471 1336 442 q 1316 543 1336 526 q 1258 560 1296 560 q 1066 436 1185 560 q 947 131 947 313 q 984 -7 947 17 q 1143 -31 1021 -31 q 1385 33 1281 -31 q 1549 218 1489 96 q 1508 75 1542 151 q 1444 -65 1474 -1 l 617 -64 m 772 794 q 663 535 735 664 q 514 303 592 407 q 653 258 606 279 q 772 182 701 236 l 772 794 z "},"Ø":{"ha":1225,"x_min":46,"x_max":1193,"o":"m 985 838 q 1193 386 1193 706 q 1041 -70 1193 88 q 614 -228 889 -228 q 332 -176 451 -228 l 300 -226 l 231 -226 l 279 -150 q 105 31 164 -85 q 46 306 46 147 q 90 565 46 425 q 264 815 135 704 q 625 926 393 926 q 935 865 808 926 l 971 924 l 1040 924 l 985 838 m 908 718 l 394 -78 q 522 -155 451 -129 q 683 -181 592 -181 q 950 -74 875 -181 q 1025 225 1025 33 q 999 497 1025 371 q 908 718 974 622 m 353 -35 l 868 764 q 742 851 815 821 q 571 882 669 882 q 316 788 413 882 q 219 468 219 694 q 251 178 219 304 q 353 -35 283 53 z "},"∞":{"ha":990,"x_min":74,"x_max":915,"o":"m 532 376 q 613 279 564 314 q 719 247 661 247 q 837 296 792 247 q 882 421 882 344 q 840 545 882 499 q 729 592 799 592 q 631 542 678 592 q 532 376 583 492 m 458 454 q 376 551 422 518 q 271 583 331 583 q 154 535 200 583 q 108 410 108 486 q 149 287 108 335 q 256 239 190 239 q 355 283 311 239 q 458 454 399 326 m 508 331 q 409 201 463 244 q 290 158 356 158 q 136 231 199 158 q 74 414 74 304 q 131 601 74 529 q 276 672 188 672 q 391 631 342 672 q 482 500 440 590 q 578 629 525 586 q 700 672 632 672 q 851 599 788 672 q 915 417 915 525 q 859 230 915 301 q 714 158 803 158 q 597 200 650 158 q 508 331 547 243 z "},"±":{"ha":763,"x_min":61,"x_max":703,"o":"m 703 26 l 61 26 l 61 121 l 703 121 l 703 26 m 429 460 l 703 460 l 703 365 l 429 365 l 429 196 l 335 196 l 335 365 l 61 365 l 61 460 l 335 460 l 335 629 l 429 629 l 429 460 z "},"≤":{"ha":856,"x_min":25,"x_max":842,"o":"m 456 597 q 381 469 421 524 q 336 500 367 488 q 258 513 306 513 q 174 456 207 513 q 142 325 142 400 q 203 137 142 192 q 344 82 265 82 q 417 101 378 82 q 497 147 456 119 q 387 28 442 63 q 235 -6 332 -6 q 63 67 100 -6 q 25 244 25 139 q 118 501 25 404 q 357 599 211 599 q 273 651 311 613 q 235 744 235 689 q 302 869 235 833 q 458 904 369 904 q 619 855 558 904 q 681 686 681 806 l 681 596 q 760 596 719 596 q 842 618 807 599 q 791 551 819 567 q 681 536 763 536 l 681 115 q 704 85 681 85 q 753 103 724 85 q 825 161 783 122 q 735 40 789 89 q 626 -8 681 -8 q 569 26 585 -8 q 553 147 553 60 l 553 536 l 472 536 q 531 587 474 553 q 588 707 588 621 q 554 827 588 786 q 447 868 521 868 q 317 840 365 868 q 269 743 269 813 q 325 649 269 682 q 456 597 381 615 z "},"≥":{"ha":833,"x_min":25,"x_max":819,"o":"m 424 599 q 395 546 406 571 q 365 460 385 521 q 286 525 319 508 q 196 542 253 542 q 117 527 139 542 q 96 483 96 513 q 207 397 96 442 q 375 315 318 353 q 432 183 432 278 q 363 34 432 71 q 189 -3 293 -3 q 53 35 82 -3 q 25 224 25 74 q 124 77 64 121 q 253 33 185 33 q 351 136 351 33 q 194 265 351 194 q 36 449 36 335 q 113 570 36 542 q 328 599 190 599 q 264 651 293 613 q 235 744 235 689 q 294 863 235 822 q 436 904 353 904 q 597 855 536 904 q 658 686 658 806 l 658 596 q 738 596 697 596 q 819 618 785 599 q 769 551 797 567 q 658 536 740 536 l 658 115 q 682 85 658 85 q 731 103 701 85 q 803 161 761 122 q 713 40 767 89 q 604 -8 658 -8 q 547 26 563 -8 q 531 147 531 60 l 531 536 l 450 536 q 508 587 451 553 q 565 707 565 621 q 530 826 565 785 q 421 868 494 868 q 305 837 342 868 q 268 742 268 806 q 319 643 268 678 q 424 599 369 608 z "},"µ":{"ha":800,"x_min":101,"x_max":775,"o":"m 231 213 q 250 81 231 114 q 319 47 269 47 q 451 160 399 47 q 504 443 504 272 l 504 624 l 632 624 l 632 168 q 645 76 632 106 q 685 47 658 47 q 728 76 713 47 q 744 161 744 104 l 744 181 l 774 181 l 775 168 l 775 150 q 742 31 775 74 q 650 -12 710 -12 q 545 47 582 -12 q 508 226 508 107 q 423 45 476 103 q 289 -12 369 -12 q 188 24 231 -12 q 132 131 149 61 l 131 92 q 175 -106 131 1 q 219 -232 219 -212 q 204 -275 219 -260 q 161 -290 189 -290 q 115 -267 129 -290 q 101 -193 101 -243 l 104 -112 l 107 11 l 106 151 l 103 283 l 103 624 l 231 624 l 231 213 z "},"∂":{"ha":686,"x_min":86,"x_max":606,"o":"m 356 485 q 236 401 283 485 q 189 178 189 318 q 219 56 189 99 q 306 13 249 13 q 426 99 379 13 q 474 311 474 185 q 444 438 474 392 q 356 485 414 485 m 497 399 q 506 438 503 418 q 510 481 510 457 l 514 604 q 492 779 514 722 q 426 836 471 836 q 357 788 401 836 q 279 739 313 739 q 244 749 257 739 q 228 783 231 760 q 270 853 228 824 q 369 882 313 882 q 524 807 476 882 q 589 664 572 732 q 606 510 606 596 q 516 133 606 283 q 297 -18 426 -18 q 144 53 203 -18 q 86 243 86 124 q 160 442 86 357 q 333 528 233 528 q 434 497 394 528 q 497 399 474 467 z "},"Σ":{"ha":990,"x_min":50,"x_max":918,"o":"m 858 893 l 879 714 l 818 714 q 700 914 774 860 q 465 968 626 968 l 282 968 l 719 369 l 242 -178 l 501 -178 q 741 -134 671 -178 q 856 28 811 -90 l 918 28 l 876 -153 l 874 -162 q 719 -300 842 -300 l 50 -300 l 590 319 l 69 1033 l 708 1033 q 822 1013 799 1033 q 858 893 846 994 z "},"∏":{"ha":1143,"x_min":42,"x_max":1107,"o":"m 164 -244 l 164 978 l 42 978 l 42 1033 l 1107 1033 l 1107 978 l 985 978 l 985 -244 l 1107 -244 l 1107 -300 l 740 -300 l 740 -244 l 857 -244 l 857 978 l 292 978 l 292 -244 l 408 -244 l 408 -300 l 42 -300 l 42 -244 l 164 -244 z "},"π":{"ha":763,"x_min":24,"x_max":731,"o":"m 561 518 l 560 485 l 556 276 l 556 221 q 567 75 556 104 q 610 46 579 46 q 667 86 649 46 q 690 210 690 129 l 725 210 l 725 203 q 689 39 725 92 q 578 -14 653 -14 q 467 42 500 -14 q 435 269 435 97 l 436 378 l 440 522 l 371 524 l 264 526 q 232 94 264 201 q 121 -14 200 -14 q 48 26 72 -14 q 24 146 24 67 l 24 172 l 57 172 q 70 117 57 135 q 108 100 83 100 q 184 165 167 100 q 209 319 201 231 q 217 526 217 407 l 186 526 q 103 508 133 526 q 65 453 74 489 l 33 453 q 47 533 33 500 q 98 594 61 565 q 254 624 135 624 l 396 619 l 607 615 q 676 625 654 615 q 699 654 697 635 l 731 656 q 698 549 731 582 q 594 517 665 517 l 575 517 l 561 518 z "},"∫":{"ha":381,"x_min":-125,"x_max":506,"o":"m 393 1051 q 474 1026 443 1051 q 506 958 506 1000 q 488 911 506 931 q 438 892 469 892 q 376 936 397 892 q 336 981 356 981 q 257 550 257 981 l 253 414 q 247 247 253 326 q 227 69 240 168 q 184 -97 214 -29 q 101 -208 154 -165 q -12 -251 47 -251 q -93 -226 -61 -251 q -125 -158 -125 -200 q -108 -110 -125 -128 q -57 -93 -90 -93 q 4 -136 -17 -93 q 46 -181 25 -179 q 125 269 125 -181 l 128 386 q 133 547 128 469 q 152 724 139 625 q 196 894 165 824 q 278 1008 226 965 q 393 1051 331 1051 z "},"Ω":{"ha":1067,"x_min":69,"x_max":997,"o":"m 824 125 q 918 151 890 125 q 946 244 946 178 l 978 244 l 978 0 l 600 0 l 600 250 q 770 356 707 271 q 833 567 833 442 q 751 801 833 714 q 533 888 669 888 q 315 801 397 888 q 233 567 233 714 q 295 357 233 442 q 467 250 357 272 l 467 0 l 89 0 l 89 244 l 121 244 q 147 151 121 178 q 243 125 174 125 l 414 125 l 414 207 q 160 331 250 236 q 69 567 69 425 q 198 836 69 735 q 533 938 326 938 q 869 835 740 938 q 997 567 997 733 q 908 333 997 428 q 653 207 819 239 l 653 125 l 824 125 z "},"æ":{"ha":933,"x_min":36,"x_max":903,"o":"m 403 183 q 254 40 307 88 q 157 -7 201 -7 q 73 49 110 -7 q 36 197 36 104 q 140 493 36 388 q 411 599 244 599 l 671 600 q 795 579 747 600 q 903 500 843 558 l 564 163 q 622 107 589 124 q 725 90 656 90 q 822 114 778 90 q 903 164 867 138 q 781 37 847 79 q 628 -6 714 -6 q 472 55 528 -6 q 403 183 417 115 m 169 289 q 189 193 169 222 q 246 164 208 164 q 320 188 278 164 q 401 246 363 211 q 426 413 401 335 q 557 560 451 490 l 440 560 q 228 474 288 560 q 169 289 169 389 m 551 194 q 649 289 600 242 q 722 408 722 368 q 699 484 722 457 q 636 511 675 511 q 562 458 592 511 q 532 346 532 406 q 538 258 532 300 q 551 194 543 217 z "},"ø":{"ha":625,"x_min":36,"x_max":582,"o":"m 479 557 q 555 457 528 521 q 582 317 582 393 q 488 90 582 189 q 276 -8 393 -8 q 197 6 236 -8 l 156 -78 l 86 -78 l 142 35 q 36 282 36 117 q 128 504 36 407 q 339 601 219 601 q 425 586 386 601 l 460 654 l 529 654 l 479 557 m 419 439 l 239 86 q 277 66 256 74 q 322 58 299 58 q 419 108 382 58 q 457 236 457 158 q 448 340 457 285 q 419 439 439 394 m 197 140 l 381 499 q 292 536 346 536 q 194 488 231 536 q 158 364 158 439 q 167 230 158 279 q 197 140 175 181 z "},"¿":{"ha":740,"x_min":47,"x_max":683,"o":"m 332 -461 q 119 -394 190 -461 q 47 -201 47 -326 q 146 15 47 -100 q 334 200 238 106 q 431 351 431 294 q 408 403 431 392 q 344 414 386 414 q 281 372 313 414 q 250 279 250 329 q 254 247 250 263 q 240 277 242 254 q 236 324 238 300 q 269 438 236 390 q 383 485 303 485 q 463 457 432 485 q 493 369 493 429 q 415 186 493 285 q 271 21 343 103 q 193 -160 193 -76 q 260 -336 193 -278 q 415 -394 328 -394 q 538 -342 493 -394 q 582 -208 582 -289 q 565 -61 582 -121 q 485 39 547 -1 q 630 -29 576 39 q 683 -185 683 -97 q 603 -380 683 -299 q 332 -461 524 -461 m 375 578 q 331 610 365 578 q 264 660 296 643 q 334 738 294 699 q 385 776 374 776 q 426 746 396 776 q 496 692 456 715 q 429 620 471 663 q 375 578 388 578 z "},"¡":{"ha":507,"x_min":35,"x_max":414,"o":"m 35 -465 q 120 -208 79 -397 q 187 72 161 -18 q 303 308 213 161 q 342 170 329 238 q 356 42 356 103 q 297 -208 356 -101 q 165 -376 238 -315 q 35 -465 93 -437 m 279 449 q 233 484 269 449 q 157 542 196 519 q 223 615 171 560 q 290 669 275 669 q 333 636 301 669 q 414 576 365 603 q 334 491 375 533 q 279 449 293 449 z "},"√":{"ha":763,"x_min":-19,"x_max":825,"o":"m 825 1061 l 746 1061 l 343 -28 l 299 -28 l 82 571 l -3 540 l -19 594 l 172 661 l 346 181 l 696 1126 l 825 1126 l 825 1061 z "},"≈":{"ha":681,"x_min":53,"x_max":614,"o":"m 144 83 l 53 175 l 242 364 l 53 553 l 144 644 l 333 456 l 522 644 l 614 553 l 425 364 l 614 175 l 522 83 l 333 272 l 144 83 z "},"∆":{"ha":386,"x_min":-92,"x_max":286,"o":"m 215 603 q 272 565 258 603 q 286 444 286 528 l 286 24 q 176 -310 286 -176 q -92 -462 67 -444 q 93 -319 28 -410 q 158 -111 158 -228 l 158 504 q 132 538 158 538 q 56 500 104 538 q 127 574 81 544 q 215 603 174 603 m 201 904 q 258 879 235 904 q 282 811 282 854 q 242 735 282 763 q 165 707 201 707 q 123 739 138 707 q 108 811 108 771 q 133 884 108 864 q 201 904 158 904 z "},"«":{"ha":453,"x_min":38,"x_max":400,"o":"m 342 400 l 400 183 l 342 140 l 229 400 l 342 635 l 400 596 l 342 400 m 151 400 l 208 183 l 151 140 l 38 390 l 151 635 l 208 596 l 151 400 z "},"»":{"ha":453,"x_min":38,"x_max":400,"o":"m 96 635 l 208 400 l 96 140 l 38 183 l 96 400 l 38 596 l 96 635 m 286 635 l 400 390 l 281 140 l 224 183 l 286 400 l 224 596 l 286 635 z "},"…":{"ha":1058,"x_min":75,"x_max":967,"o":"m 192 132 q 239 96 200 132 q 318 28 278 60 l 203 -89 q 146 -43 200 -86 q 75 10 92 0 q 124 79 83 26 q 192 132 164 132 m 515 132 q 561 97 525 132 q 642 28 597 61 l 526 -89 q 446 -25 479 -51 q 399 10 413 1 q 449 83 413 33 q 515 132 486 132 m 840 132 q 887 97 849 132 q 967 28 925 61 l 851 -89 q 791 -40 828 -74 q 724 10 754 -7 q 772 79 732 26 q 840 132 813 132 z "}," ":{"ha":347,"x_min":0,"x_max":0,"o":""},"À":{"ha":872,"x_min":4,"x_max":1108,"o":"m 1108 -257 l 1025 -257 q 824 -174 906 -257 q 667 7 744 -83 q 364 181 546 126 q 283 83 333 143 q 159 -43 232 22 q 42 -108 86 -108 q 9 -98 14 -108 q 4 -71 4 -87 q 101 5 4 -54 q 326 192 197 64 q 229 206 272 206 q 158 196 183 206 q 97 168 132 186 q 170 212 129 199 q 260 225 211 225 q 296 223 276 225 q 344 215 315 221 q 522 485 447 344 q 631 742 597 625 q 734 289 701 417 q 861 -15 767 161 q 1108 -257 956 -190 m 713 761 q 596 815 692 761 q 500 908 500 868 q 531 925 500 925 q 654 843 579 925 q 713 761 683 801 m 564 500 q 484 352 529 422 q 382 207 439 282 q 540 156 464 186 q 667 86 617 126 q 564 500 608 210 z "},"Ã":{"ha":872,"x_min":4,"x_max":1108,"o":"m 1108 -257 l 1025 -257 q 824 -174 906 -257 q 667 7 744 -83 q 364 181 546 126 q 283 83 333 143 q 159 -43 232 22 q 42 -108 86 -108 q 9 -98 14 -108 q 4 -71 4 -87 q 101 5 4 -54 q 326 192 197 64 q 229 206 272 206 q 158 196 183 206 q 97 168 132 186 q 170 212 129 199 q 260 225 211 225 q 296 223 276 225 q 344 215 315 221 q 522 485 447 344 q 631 742 597 625 q 734 289 701 417 q 861 -15 767 161 q 1108 -257 956 -190 m 553 908 q 643 878 588 908 q 736 847 699 847 q 813 869 789 847 q 864 924 836 890 q 810 812 850 857 q 713 767 771 767 q 622 797 683 767 q 531 828 561 828 q 460 811 483 828 q 403 753 438 794 q 454 863 413 817 q 553 908 496 908 m 564 500 q 484 352 529 422 q 382 207 439 282 q 540 156 464 186 q 667 86 617 126 q 564 500 608 210 z "},"Õ":{"ha":981,"x_min":36,"x_max":954,"o":"m 500 742 q 839 631 724 742 q 954 308 954 519 q 833 -57 954 68 q 492 -182 713 -182 q 152 -69 268 -182 q 36 244 36 44 q 72 452 36 339 q 211 653 108 565 q 500 742 314 742 m 393 914 q 483 883 428 914 q 575 853 539 853 q 653 874 629 853 q 703 928 676 896 q 651 816 690 861 q 553 771 611 771 q 463 801 524 771 q 369 832 401 832 q 301 815 324 832 q 242 758 279 799 q 295 868 253 822 q 393 914 338 914 m 175 375 q 265 -3 175 138 q 547 -144 354 -144 q 760 -59 700 -144 q 819 181 819 26 q 719 585 819 464 q 457 706 618 706 q 252 631 329 706 q 175 375 175 557 z "},"Œ":{"ha":1600,"x_min":42,"x_max":1582,"o":"m 958 904 l 981 925 l 981 904 l 1475 904 q 1522 770 1475 850 q 1582 642 1568 690 q 1403 803 1492 722 q 1190 861 1304 861 l 1022 863 q 978 814 978 863 l 978 426 q 1115 565 1049 513 q 1279 618 1182 618 q 1363 588 1332 618 q 1393 507 1393 557 q 1363 408 1393 460 q 1367 468 1367 444 q 1347 542 1367 525 q 1290 560 1326 560 q 1097 437 1215 560 q 978 131 978 314 q 1015 -7 978 17 q 1175 -31 1053 -31 q 1581 218 1456 -31 q 1539 76 1574 154 q 1475 -65 1504 -1 l 836 -65 q 703 -113 769 -96 q 553 -131 638 -131 q 172 -3 303 -131 q 42 350 42 125 q 81 587 42 460 q 238 816 121 714 q 564 918 354 918 q 765 909 657 914 q 958 904 874 904 m 514 878 q 295 790 375 878 q 215 496 215 703 q 308 68 215 224 q 614 -87 400 -87 q 752 -65 701 -87 q 803 -14 803 -43 l 803 701 q 713 823 803 768 q 514 878 624 878 z "},"œ":{"ha":989,"x_min":36,"x_max":957,"o":"m 492 97 q 392 20 449 49 q 276 -8 335 -8 q 101 74 167 -8 q 36 282 36 157 q 128 504 36 407 q 339 601 219 601 q 456 573 406 601 q 538 492 506 544 q 769 600 629 600 q 859 581 824 600 q 956 500 894 561 l 618 163 q 687 103 646 117 q 779 90 728 90 q 876 114 831 90 q 957 164 921 138 q 681 -6 847 -6 q 565 22 611 -6 q 492 97 519 50 m 158 364 q 188 154 158 250 q 322 58 218 58 q 419 108 382 58 q 457 236 457 158 q 419 442 457 349 q 292 536 382 536 q 194 488 231 536 q 158 364 158 439 m 604 194 q 701 289 653 242 q 775 408 775 368 q 758 478 775 444 q 690 511 742 511 q 613 454 640 511 q 585 317 585 397 q 604 194 585 253 z "},"–":{"ha":560,"x_min":57,"x_max":499,"o":"m 57 246 q 153 380 104 351 q 276 408 201 408 q 308 408 293 408 q 335 407 322 407 q 417 414 382 407 q 499 443 453 421 q 400 308 451 335 q 258 282 349 282 q 148 277 186 282 q 57 246 110 272 z "},"—":{"ha":964,"x_min":99,"x_max":872,"o":"m 578 279 l 236 279 q 162 272 189 279 q 99 244 135 264 q 192 353 117 300 q 343 407 268 407 l 729 407 q 804 416 775 407 q 872 442 833 425 q 742 317 831 354 q 578 279 654 279 z "},"“":{"ha":414,"x_min":1,"x_max":408,"o":"m 304 558 q 249 628 267 592 q 231 700 231 665 q 260 791 231 749 q 344 864 290 833 q 318 789 318 826 q 339 725 318 747 q 408 664 360 703 q 373 600 396 626 q 304 558 350 574 m 75 558 q 19 628 38 592 q 1 700 1 665 q 31 791 1 749 q 115 864 61 833 q 89 789 89 826 q 111 722 89 746 q 181 664 133 699 q 149 607 169 638 q 75 558 128 576 z "},"”":{"ha":414,"x_min":7,"x_max":415,"o":"m 342 874 q 397 803 379 840 q 415 732 415 767 q 385 642 415 683 q 301 568 356 600 q 328 643 328 606 q 307 708 328 686 q 236 769 286 729 q 268 827 247 797 q 342 874 289 857 m 111 874 q 167 803 149 840 q 185 732 185 767 q 155 642 185 683 q 71 568 125 600 q 97 643 97 606 q 79 704 97 685 q 7 769 61 724 q 39 827 18 797 q 111 874 60 857 z "},"‘":{"ha":196,"x_min":1,"x_max":181,"o":"m 75 558 q 19 628 38 592 q 1 700 1 665 q 31 791 1 749 q 115 864 61 833 q 89 789 89 826 q 111 722 89 746 q 181 664 133 699 q 149 607 169 638 q 75 558 128 576 z "},"’":{"ha":174,"x_min":-17,"x_max":161,"o":"m 88 921 q 143 851 125 888 q 161 779 161 814 q 131 689 161 732 q 47 615 100 646 q 74 690 74 653 q 56 751 74 732 q -17 817 38 771 q 15 874 -6 844 q 88 921 36 904 z "},"÷":{"ha":763,"x_min":60,"x_max":703,"o":"m 382 219 q 438 197 415 219 q 460 140 460 175 q 436 85 460 107 q 382 61 415 61 q 326 85 349 61 q 303 140 303 110 q 327 197 303 174 q 382 219 351 219 m 703 281 l 60 281 l 60 375 l 703 375 l 703 281 m 382 593 q 438 569 415 593 q 460 514 460 546 q 436 458 460 481 q 382 435 415 435 q 326 458 349 435 q 303 514 303 481 q 327 570 303 547 q 382 593 351 593 z "},"◊":{"ha":506,"x_min":28,"x_max":486,"o":"m 257 903 l 486 451 l 257 -12 l 28 451 l 257 903 m 257 786 l 90 451 l 257 113 l 424 451 l 257 786 z "},"ÿ":{"ha":649,"x_min":-25,"x_max":638,"o":"m 525 625 q 592 567 546 625 q 638 442 638 508 q 538 231 638 408 q 388 -49 438 53 q 338 -233 338 -151 q 377 -356 338 -301 q 482 -410 417 -410 q 566 -381 536 -410 q 626 -281 596 -353 q 563 -426 626 -387 q 417 -465 500 -465 q 258 -430 308 -465 q 208 -303 208 -394 q 252 -159 208 -229 q 375 15 296 -89 q 306 168 350 71 q 210 361 263 265 q 140 461 157 457 q 108 465 122 465 q 42 451 76 465 q -25 417 7 436 q 74 541 15 479 q 181 603 133 603 q 337 406 244 603 q 464 163 429 210 q 507 252 486 203 q 528 353 528 301 q 499 449 528 410 q 415 514 471 489 q 461 588 436 551 q 525 625 486 625 m 246 796 q 276 778 264 796 q 288 740 288 761 q 272 706 288 714 q 232 699 256 699 q 202 716 214 699 q 190 754 190 733 q 246 796 190 796 m 431 796 q 462 778 450 796 q 474 740 474 761 q 458 706 474 714 q 418 699 442 699 q 390 713 404 699 q 376 754 376 726 q 392 785 376 774 q 431 796 408 796 z "},"Ÿ":{"ha":465,"x_min":-86,"x_max":969,"o":"m 751 744 q 910 671 851 744 q 969 493 969 597 q 890 632 931 586 q 742 678 849 678 q 493 534 571 678 q 415 278 415 390 l 415 64 q 446 -11 415 26 q 536 -65 476 -49 l 211 -65 q 288 -19 263 -44 q 314 56 314 7 l 314 297 q 269 420 314 335 q 135 589 225 506 q -86 710 46 672 l 268 710 q 220 688 242 701 q 199 654 199 675 q 305 521 240 606 q 381 375 369 436 q 503 627 408 510 q 751 744 599 744 m 308 863 q 338 845 326 863 q 350 807 350 828 q 334 773 350 781 q 294 765 318 765 q 265 783 276 765 q 253 821 253 800 q 308 863 253 863 m 493 863 q 524 846 513 863 q 536 807 536 829 q 520 773 536 781 q 481 765 504 765 q 450 783 461 765 q 439 821 439 801 q 455 851 439 840 q 493 863 471 863 z "},"∕":{"ha":136,"x_min":-215,"x_max":347,"o":"m -121 0 l -215 0 l 253 946 l 347 946 l -121 0 z "},"¤":{"ha":935,"x_min":142,"x_max":776,"o":"m 197 311 q 162 390 172 356 q 151 471 151 424 q 197 635 151 557 l 142 689 l 242 789 l 296 733 q 457 781 372 781 q 625 733 551 781 l 679 789 l 776 689 l 721 635 q 768 472 768 561 q 757 388 768 429 q 721 311 746 346 l 776 256 l 679 157 l 625 213 q 464 164 546 164 q 296 213 369 164 l 242 157 l 142 256 l 197 311 m 676 472 q 615 624 676 560 q 460 689 553 689 q 306 624 369 689 q 243 472 243 560 q 306 321 243 386 q 460 256 368 256 q 613 320 550 256 q 676 472 676 385 z "},"‹":{"ha":250,"x_min":38,"x_max":208,"o":"m 151 400 l 208 183 l 151 140 l 38 400 l 151 635 l 208 596 l 151 400 z "},"›":{"ha":250,"x_min":38,"x_max":208,"o":"m 96 635 l 208 400 l 96 140 l 38 183 l 96 400 l 38 596 l 96 635 z "},"":{"ha":715,"x_min":-192,"x_max":692,"o":"m 346 926 q 526 881 450 926 q 603 792 603 836 q 577 752 603 779 q 514 697 551 725 q 416 811 461 785 q 299 838 371 838 q 231 824 254 838 q 208 774 208 810 l 208 596 l 526 596 q 581 560 560 596 q 603 436 603 525 l 603 94 q 622 67 603 67 q 692 113 647 67 q 642 31 685 72 q 556 -10 599 -10 q 475 96 475 -10 l 475 513 l 208 513 l 208 -79 q 132 -372 208 -281 q -43 -464 56 -464 l -192 -464 q -147 -394 -176 -411 q -74 -376 -118 -376 q -40 -378 -62 -376 q -8 -379 -18 -379 q 57 -358 35 -379 q 79 -272 79 -337 l 79 514 l -18 514 l 56 596 l 81 596 l 81 664 q 157 857 81 788 q 346 926 233 926 z "},"":{"ha":764,"x_min":-178,"x_max":783,"o":"m 221 760 l 221 596 q 393 625 379 596 q 327 538 365 561 q 221 514 289 514 l 221 -25 q 144 -351 221 -237 q -31 -464 67 -464 l -178 -464 q -31 -368 -153 -371 q 92 -250 92 -365 l 92 514 l -4 514 l 69 596 l 93 596 l 93 664 q 167 851 93 775 q 353 926 242 926 l 783 926 q 709 861 758 883 q 599 839 660 839 l 599 139 q 629 85 599 85 q 739 153 663 85 q 658 41 718 92 q 553 -10 599 -10 q 492 28 513 -10 q 471 121 471 67 l 471 626 q 471 649 471 640 q 478 746 471 694 q 506 839 485 797 l 288 839 q 238 815 254 839 q 221 760 221 790 z "},"‡":{"ha":485,"x_min":29,"x_max":456,"o":"m 174 801 q 240 874 174 874 q 294 856 275 874 q 314 801 314 839 q 301 713 314 793 q 275 551 289 632 q 349 574 311 563 q 399 585 386 585 q 441 565 426 585 q 456 518 456 546 q 440 472 456 492 q 399 453 425 453 q 347 463 386 453 q 269 485 308 472 q 286 419 276 447 q 319 343 296 390 q 288 272 300 304 q 269 203 276 240 q 347 224 307 214 q 399 233 386 233 q 441 214 426 233 q 456 167 456 194 q 440 121 456 140 q 399 101 425 101 q 350 113 388 101 q 275 135 313 124 q 301 -30 289 53 q 314 -121 314 -112 q 294 -175 314 -156 q 243 -194 275 -194 q 174 -121 174 -194 q 185 -29 174 -110 q 211 135 197 51 q 136 113 175 124 q 86 101 97 101 q 44 121 60 101 q 29 168 29 140 q 43 215 29 196 q 85 233 57 233 q 137 224 97 233 q 214 203 176 214 q 198 270 210 238 q 164 343 186 303 q 196 415 182 378 q 214 485 210 453 q 135 463 176 474 q 85 453 94 453 q 44 473 58 453 q 29 519 29 493 q 44 565 29 546 q 86 585 60 585 q 135 574 96 585 q 211 551 174 563 q 186 715 199 631 q 174 801 174 799 z "},"Â":{"ha":872,"x_min":4,"x_max":1108,"o":"m 1108 -257 l 1025 -257 q 824 -174 906 -257 q 667 7 744 -83 q 364 181 546 126 q 283 83 333 143 q 159 -43 232 22 q 42 -108 86 -108 q 9 -98 14 -108 q 4 -71 4 -87 q 101 5 4 -54 q 326 192 197 64 q 229 206 272 206 q 158 196 183 206 q 97 168 132 186 q 170 212 129 199 q 260 225 211 225 q 296 223 276 225 q 344 215 315 221 q 522 485 447 344 q 631 742 597 625 q 734 289 701 417 q 861 -15 767 161 q 1108 -257 956 -190 m 800 750 q 699 793 753 772 q 614 814 646 814 q 527 793 583 814 q 419 750 471 772 q 511 846 454 817 q 619 892 568 875 q 725 848 671 876 q 800 750 779 819 m 564 500 q 484 352 529 422 q 382 207 439 282 q 540 156 464 186 q 667 86 617 126 q 564 500 608 210 z "},"Ê":{"ha":943,"x_min":4,"x_max":925,"o":"m 425 710 l 442 726 l 442 710 l 839 710 q 876 603 839 668 q 925 500 914 539 q 822 600 874 550 q 611 675 726 675 l 442 675 l 442 328 q 549 437 493 393 q 682 481 604 481 q 748 456 724 481 q 772 393 772 432 q 749 314 772 357 q 753 361 753 342 q 738 422 753 408 q 692 435 722 435 q 537 336 632 435 q 442 92 442 238 q 470 -19 442 0 q 597 -37 499 -37 q 791 13 707 -37 q 922 161 875 64 q 890 47 917 107 q 839 -65 863 -14 l 192 -65 q 269 -17 238 -42 q 301 54 301 7 l 301 444 q 317 544 301 508 q 385 675 333 581 q 131 623 203 675 q 60 444 60 571 q 101 256 60 319 q 236 139 143 192 q 55 217 106 139 q 4 415 4 296 q 99 634 4 558 q 425 710 194 710 m 764 768 q 663 810 717 789 q 579 831 608 831 q 490 810 546 831 q 383 768 435 790 q 475 864 418 835 q 583 910 532 893 q 690 864 635 893 q 764 768 744 835 z "},"Á":{"ha":872,"x_min":4,"x_max":1108,"o":"m 1108 -257 l 1025 -257 q 824 -174 906 -257 q 667 7 744 -83 q 364 181 546 126 q 283 83 333 143 q 159 -43 232 22 q 42 -108 86 -108 q 9 -98 14 -108 q 4 -71 4 -87 q 101 5 4 -54 q 326 192 197 64 q 229 206 272 206 q 158 196 183 206 q 97 168 132 186 q 170 212 129 199 q 260 225 211 225 q 296 223 276 225 q 344 215 315 221 q 522 485 447 344 q 631 742 597 625 q 734 289 701 417 q 861 -15 767 161 q 1108 -257 956 -190 m 719 922 q 749 904 749 922 q 653 812 749 865 q 536 758 557 758 q 594 840 565 799 q 719 922 669 922 m 564 500 q 484 352 529 422 q 382 207 439 282 q 540 156 464 186 q 667 86 617 126 q 564 500 608 210 z "},"Ë":{"ha":943,"x_min":4,"x_max":925,"o":"m 425 710 l 442 726 l 442 710 l 839 710 q 876 603 839 668 q 925 500 914 539 q 822 600 874 550 q 611 675 726 675 l 442 675 l 442 328 q 549 437 493 393 q 682 481 604 481 q 748 456 724 481 q 772 393 772 432 q 749 314 772 357 q 753 361 753 342 q 738 422 753 408 q 692 435 722 435 q 537 336 632 435 q 442 92 442 238 q 470 -19 442 0 q 597 -37 499 -37 q 791 13 707 -37 q 922 161 875 64 q 890 47 917 107 q 839 -65 863 -14 l 192 -65 q 269 -17 238 -42 q 301 54 301 7 l 301 444 q 317 544 301 508 q 385 675 333 581 q 131 623 203 675 q 60 444 60 571 q 101 256 60 319 q 236 139 143 192 q 55 217 106 139 q 4 415 4 296 q 99 634 4 558 q 425 710 194 710 m 503 897 q 534 881 522 897 q 546 842 546 865 q 530 808 546 815 q 490 801 514 801 q 459 818 471 801 q 447 857 447 835 q 462 885 447 874 q 503 897 476 897 m 689 897 q 719 881 708 897 q 731 842 731 864 q 715 808 731 815 q 675 801 699 801 q 649 816 663 801 q 635 857 635 831 q 651 886 635 875 q 689 897 668 897 z "},"È":{"ha":943,"x_min":4,"x_max":925,"o":"m 425 710 l 442 726 l 442 710 l 839 710 q 876 603 839 668 q 925 500 914 539 q 822 600 874 550 q 611 675 726 675 l 442 675 l 442 328 q 549 437 493 393 q 682 481 604 481 q 748 456 724 481 q 772 393 772 432 q 749 314 772 357 q 753 361 753 342 q 738 422 753 408 q 692 435 722 435 q 537 336 632 435 q 442 92 442 238 q 470 -19 442 0 q 597 -37 499 -37 q 791 13 707 -37 q 922 161 875 64 q 890 47 917 107 q 839 -65 863 -14 l 192 -65 q 269 -17 238 -42 q 301 54 301 7 l 301 444 q 317 544 301 508 q 385 675 333 581 q 131 623 203 675 q 60 444 60 571 q 101 256 60 319 q 236 139 143 192 q 55 217 106 139 q 4 415 4 296 q 99 634 4 558 q 425 710 194 710 m 579 761 q 463 815 558 761 q 367 908 367 868 q 397 925 367 925 q 521 843 446 925 q 579 761 550 801 z "},"Í":{"ha":646,"x_min":4,"x_max":690,"o":"m 315 710 l 690 710 q 589 586 589 668 l 589 64 q 611 -8 589 28 q 690 -68 633 -44 l 347 -68 q 449 64 449 -22 l 449 531 q 465 625 449 593 q 504 675 490 657 l 306 675 q 113 617 165 675 q 60 454 60 560 q 104 306 60 372 q 218 239 149 239 q 299 296 283 239 q 342 353 314 353 q 364 324 364 353 q 324 250 364 286 q 208 214 283 214 q 58 283 113 214 q 4 454 4 351 q 105 649 4 588 q 315 710 206 710 m 653 922 q 682 904 682 922 q 586 812 682 865 q 469 758 490 758 q 528 840 499 799 q 653 922 603 922 z "},"Î":{"ha":646,"x_min":4,"x_max":715,"o":"m 315 710 l 690 710 q 589 586 589 668 l 589 64 q 611 -8 589 28 q 690 -68 633 -44 l 347 -68 q 449 64 449 -22 l 449 531 q 465 625 449 593 q 504 675 490 657 l 306 675 q 113 617 165 675 q 60 454 60 560 q 104 306 60 372 q 218 239 149 239 q 299 296 283 239 q 342 353 314 353 q 364 324 364 353 q 324 250 364 286 q 208 214 283 214 q 58 283 113 214 q 4 454 4 351 q 105 649 4 588 q 315 710 206 710 m 715 768 q 614 810 668 789 q 531 831 560 831 q 442 810 497 831 q 335 768 386 790 q 426 864 369 835 q 535 910 483 893 q 641 864 586 893 q 715 768 696 835 z "},"Ï":{"ha":646,"x_min":4,"x_max":690,"o":"m 315 710 l 690 710 q 589 586 589 668 l 589 64 q 611 -8 589 28 q 690 -68 633 -44 l 347 -68 q 449 64 449 -22 l 449 531 q 465 625 449 593 q 504 675 490 657 l 306 675 q 113 617 165 675 q 60 454 60 560 q 104 306 60 372 q 218 239 149 239 q 299 296 283 239 q 342 353 314 353 q 364 324 364 353 q 324 250 364 286 q 208 214 283 214 q 58 283 113 214 q 4 454 4 351 q 105 649 4 588 q 315 710 206 710 m 458 897 q 490 881 478 897 q 501 842 501 865 q 485 808 501 815 q 446 801 469 801 q 415 818 426 801 q 403 857 403 835 q 417 885 403 874 q 458 897 432 897 m 644 897 q 675 881 664 897 q 686 842 686 864 q 670 808 686 815 q 631 801 654 801 q 604 816 618 801 q 590 857 590 831 q 607 886 590 875 q 644 897 624 897 z "},"Ì":{"ha":646,"x_min":4,"x_max":690,"o":"m 315 710 l 690 710 q 589 586 589 668 l 589 64 q 611 -8 589 28 q 690 -68 633 -44 l 347 -68 q 449 64 449 -22 l 449 531 q 465 625 449 593 q 504 675 490 657 l 306 675 q 113 617 165 675 q 60 454 60 560 q 104 306 60 372 q 218 239 149 239 q 299 296 283 239 q 342 353 314 353 q 364 324 364 353 q 324 250 364 286 q 208 214 283 214 q 58 283 113 214 q 4 454 4 351 q 105 649 4 588 q 315 710 206 710 m 547 761 q 431 815 526 761 q 336 908 336 868 q 365 925 336 925 q 489 843 414 925 q 547 761 518 801 z "},"Ó":{"ha":981,"x_min":36,"x_max":954,"o":"m 500 742 q 839 631 724 742 q 954 308 954 519 q 833 -57 954 68 q 492 -182 713 -182 q 152 -69 268 -182 q 36 244 36 44 q 72 452 36 339 q 211 653 108 565 q 500 742 314 742 m 635 922 q 664 904 664 922 q 569 812 664 865 q 453 758 474 758 q 510 840 481 799 q 635 922 583 922 m 175 375 q 265 -3 175 138 q 547 -144 354 -144 q 760 -59 700 -144 q 819 181 819 26 q 719 585 819 464 q 457 706 618 706 q 252 631 329 706 q 175 375 175 557 z "},"Ô":{"ha":981,"x_min":36,"x_max":954,"o":"m 500 742 q 839 631 724 742 q 954 308 954 519 q 833 -57 954 68 q 492 -182 713 -182 q 152 -69 268 -182 q 36 244 36 44 q 72 452 36 339 q 211 653 108 565 q 500 742 314 742 m 685 768 q 583 810 638 789 q 499 831 528 831 q 410 810 465 831 q 303 768 354 790 q 394 864 338 835 q 503 910 451 893 q 610 864 556 893 q 685 768 665 835 m 175 375 q 265 -3 175 138 q 547 -144 354 -144 q 760 -59 700 -144 q 819 181 819 26 q 719 585 819 464 q 457 706 618 706 q 252 631 329 706 q 175 375 175 557 z "},"":{"ha":828,"x_min":28,"x_max":790,"o":"m 600 903 q 555 753 600 808 q 425 689 510 699 q 466 824 425 764 q 600 903 507 883 m 279 689 q 360 670 313 689 q 431 651 407 651 q 490 670 438 651 q 576 689 542 689 q 678 669 636 689 q 765 603 719 650 q 708 550 736 576 q 661 419 661 493 q 686 321 661 369 q 790 228 711 272 q 688 50 732 111 q 563 -11 643 -11 q 494 8 540 -11 q 425 26 449 26 q 360 8 408 26 q 288 -11 313 -11 q 111 132 194 -11 q 28 419 28 275 q 85 603 28 517 q 279 689 142 689 z "},"Ò":{"ha":981,"x_min":36,"x_max":954,"o":"m 500 742 q 839 631 724 742 q 954 308 954 519 q 833 -57 954 68 q 492 -182 713 -182 q 152 -69 268 -182 q 36 244 36 44 q 72 452 36 339 q 211 653 108 565 q 500 742 314 742 m 557 761 q 440 815 536 761 q 344 908 344 868 q 375 925 344 925 q 499 843 424 925 q 557 761 528 801 m 175 375 q 265 -3 175 138 q 547 -144 354 -144 q 760 -59 700 -144 q 819 181 819 26 q 719 585 819 464 q 457 706 618 706 q 252 631 329 706 q 175 375 175 557 z "},"Ú":{"ha":1025,"x_min":8,"x_max":1081,"o":"m 400 710 l 660 710 q 469 453 528 571 q 410 207 410 335 q 467 -8 410 38 q 635 -53 525 -53 q 763 -8 703 -53 q 824 96 824 36 l 824 644 q 809 687 824 675 q 767 710 794 699 l 981 710 q 1038 693 1010 710 q 1081 650 1065 676 q 1031 678 1040 674 q 1008 682 1022 682 q 976 665 990 682 q 963 625 963 649 l 963 58 q 988 -11 963 22 q 1069 -65 1014 -44 l 824 -65 l 824 -8 q 707 -122 779 -69 q 540 -175 635 -175 q 325 -85 386 -175 q 264 161 264 6 q 311 387 264 285 q 421 557 358 489 q 549 676 483 625 l 353 676 q 144 608 213 676 q 75 431 75 539 q 105 293 75 354 q 200 197 135 232 q 60 271 113 207 q 8 421 8 335 q 100 617 8 524 q 400 710 192 710 m 906 922 q 936 904 936 922 q 840 812 936 865 q 724 758 744 758 q 781 840 751 799 q 906 922 854 922 z "},"Û":{"ha":1025,"x_min":0,"x_max":1071,"o":"m 392 710 l 651 710 q 461 453 521 572 q 401 207 401 335 q 459 -8 401 38 q 625 -53 517 -53 q 754 -8 694 -53 q 814 96 814 36 l 814 644 q 799 688 814 675 q 758 710 785 700 l 972 710 q 1028 693 1001 710 q 1071 650 1056 676 q 1038 671 1054 660 q 1000 682 1017 682 q 969 669 986 682 q 953 625 953 657 l 953 58 q 980 -10 953 24 q 1061 -65 1007 -44 l 814 -65 l 814 -8 q 699 -122 771 -69 q 531 -175 626 -175 q 317 -85 378 -175 q 256 161 256 6 q 303 387 256 285 q 413 557 350 489 q 540 676 475 625 l 344 676 q 134 608 203 676 q 65 431 65 539 q 96 294 65 357 q 192 197 126 231 q 52 271 104 207 q 0 421 0 335 q 92 617 0 524 q 392 710 183 710 m 881 768 q 778 810 833 789 q 694 831 724 831 q 606 810 661 831 q 499 768 550 790 q 590 864 533 835 q 699 910 647 893 q 805 864 750 893 q 881 768 860 835 z "},"Ù":{"ha":1025,"x_min":4,"x_max":1075,"o":"m 396 710 l 656 710 q 465 453 524 571 q 406 207 406 335 q 463 -8 406 38 q 631 -53 521 -53 q 759 -8 699 -53 q 819 96 819 36 l 819 644 q 805 687 819 675 q 763 710 790 699 l 976 710 q 1033 693 1006 710 q 1075 650 1060 676 q 1042 671 1058 660 q 1004 682 1021 682 q 972 665 986 682 q 958 625 958 649 l 958 58 q 984 -11 958 22 q 1065 -65 1010 -44 l 819 -65 l 819 -8 q 703 -122 775 -69 q 536 -175 631 -175 q 321 -85 382 -175 q 260 161 260 6 q 307 387 260 285 q 417 557 354 489 q 544 676 479 625 l 349 676 q 138 608 207 676 q 69 431 69 539 q 100 294 69 357 q 196 197 131 231 q 56 271 108 207 q 4 421 4 335 q 96 617 4 524 q 396 710 188 710 m 757 761 q 640 815 736 761 q 544 908 544 868 q 575 925 544 925 q 699 843 624 925 q 757 761 728 801 z "},"ı":{"ha":363,"x_min":18,"x_max":344,"o":"m 169 601 q 230 568 213 601 q 247 489 247 535 l 247 99 q 276 60 253 60 q 315 78 293 60 q 344 101 338 96 q 277 18 311 44 q 200 -8 243 -8 q 142 22 164 -8 q 119 94 119 53 l 119 504 q 100 531 119 531 q 18 483 74 531 q 75 556 25 510 q 169 601 125 601 z "},"̂":{"ha":567,"x_min":51,"x_max":475,"o":"m 475 697 q 363 757 422 728 q 269 786 304 786 q 172 757 235 786 q 51 697 110 728 q 153 834 90 792 q 274 900 217 876 q 391 836 329 878 q 475 697 453 794 z "},"̃":{"ha":633,"x_min":86,"x_max":547,"o":"m 238 833 q 328 803 272 833 q 419 772 383 772 q 497 794 474 772 q 547 847 521 815 q 495 737 535 782 q 397 692 456 692 q 307 722 368 692 q 214 753 246 753 q 146 736 168 753 q 86 678 124 719 q 140 788 97 742 q 238 833 182 833 z "},"ˉ":{"ha":521,"x_min":75,"x_max":425,"o":"m 425 801 l 75 801 l 75 921 l 425 921 l 425 801 z "},"˘":{"ha":567,"x_min":60,"x_max":497,"o":"m 286 769 q 160 828 210 769 q 60 1013 111 886 q 165 943 106 978 q 286 908 224 908 q 403 942 350 908 q 497 1013 456 976 q 415 831 467 893 q 286 769 364 769 z "},"˙":{"ha":453,"x_min":108,"x_max":346,"o":"m 346 881 q 310 793 346 828 q 222 758 274 758 q 142 793 175 758 q 108 875 108 828 q 143 964 108 928 q 231 1000 178 1000 q 313 965 279 1000 q 346 881 346 931 z "},"˚":{"ha":482,"x_min":108,"x_max":367,"o":"m 108 906 q 146 997 108 960 q 238 1035 183 1035 q 328 998 290 1035 q 367 907 367 961 q 328 817 367 853 q 235 781 289 781 q 147 818 186 781 q 108 906 108 856 m 306 908 q 285 954 306 936 q 236 972 264 972 q 191 953 210 972 q 172 908 172 935 q 191 863 172 881 q 239 846 210 846 q 287 863 268 846 q 306 908 306 881 z "},"¸":{"ha":408,"x_min":18,"x_max":315,"o":"m 181 -68 l 224 -65 q 288 -93 260 -65 q 315 -165 315 -121 q 278 -263 315 -231 q 186 -296 242 -296 q 94 -287 143 -296 q 18 -254 46 -278 l 47 -254 q 174 -236 124 -254 q 224 -160 224 -218 q 203 -118 224 -131 q 156 -106 182 -106 l 118 -106 l 129 0 l 189 0 l 181 -68 z "},"ʺ":{"ha":499,"x_min":75,"x_max":406,"o":"m 97 918 q 117 999 104 969 q 164 1029 129 1029 q 202 1009 188 1029 q 217 957 217 989 q 210 921 217 938 q 178 868 204 904 l 104 769 l 75 789 l 97 918 m 286 918 q 306 999 293 969 q 353 1029 318 1029 q 391 1009 376 1029 q 406 957 406 989 q 399 921 406 938 q 367 868 393 904 l 293 769 l 264 789 l 286 918 z "},"˛":{"ha":363,"x_min":75,"x_max":274,"o":"m 200 0 q 164 -83 164 -36 q 176 -133 164 -117 q 217 -149 188 -149 q 274 -139 240 -149 q 228 -203 258 -179 q 161 -226 197 -226 q 99 -198 124 -226 q 75 -122 75 -169 q 122 0 75 -51 l 200 0 z "},"ˇ":{"ha":567,"x_min":42,"x_max":483,"o":"m 269 756 q 146 848 211 793 q 42 999 81 903 q 170 930 103 964 q 274 896 238 896 q 368 931 308 896 q 483 1003 428 965 q 397 849 461 906 q 269 756 332 793 z "}}}
